<?xml version="1.0" encoding="UTF-8" standalone="no"?>
<svg
   xmlns:dc="http://purl.org/dc/elements/1.1/"
   xmlns:cc="http://creativecommons.org/ns#"
   xmlns:rdf="http://www.w3.org/1999/02/22-rdf-syntax-ns#"
   xmlns:svg="http://www.w3.org/2000/svg"
   xmlns="http://www.w3.org/2000/svg"
   viewBox="0 0 534.94 536.14001"
   height="536.14001"
   width="534.94"
   xml:space="preserve"
   id="svg2"
   version="1.1"><metadata
     id="metadata8"><rdf:RDF><cc:Work
         rdf:about=""><dc:format>image/svg+xml</dc:format><dc:type
           rdf:resource="http://purl.org/dc/dcmitype/StillImage" /></cc:Work></rdf:RDF></metadata><defs
     id="defs6"><clipPath
       id="clipPath18"
       clipPathUnits="userSpaceOnUse"><path
         id="path16"
         d="m 372.573,395.349 c -0.151,-3.568 3.265,-7.516 4.707,-10.552 v 0 c 1.443,-3.037 -2.581,-3.644 -4.1,-5.542 v 0 c -1.518,-1.898 -0.227,-6.453 0.532,-9.186 v 0 c 0.759,-2.733 -0.987,-3.644 -1.746,-5.238 v 0 c -0.759,-1.595 -1.594,-0.228 -2.353,0.834 v 0 c -0.228,-2.884 -2.05,-5.693 -3.189,-5.161 v 0 c -1.138,0.531 -1.67,3.72 -1.595,8.275 v 0 c 0.077,4.554 -1.214,7.971 -5.389,9.489 v 0 c -4.176,1.518 -4.327,3.416 -4.327,5.466 v 0 c 0,2.049 -1.291,4.782 -3.341,6.528 v 0 c -2.049,1.746 -6.376,3.34 -9.185,3.34 v 0 c 1.29,-0.531 2.581,-2.277 2.961,-3.795 v 0 c 0.379,-1.518 -0.38,-2.126 4.175,-8.047 v 0 c 4.555,-5.922 7.971,-10.704 7.971,-22.774 v 0 c 0,-21.864 -20.565,-51.512 -45.186,-74.392 v 0 c -34.264,-31.841 -76.383,-56.552 -81.863,-59.865 v 0 c -7.064,-4.27 -7.52,-4.357 -9.903,-5.732 v 0 c -1.974,-1.138 -3.468,-3.074 -4.023,-3.757 v 0 c -2.496,-3.075 -5.694,1.442 -3.538,5.489 v 0 l -0.007,0.02 c 1.948,2.611 3.118,5.84 3.118,9.348 v 0 c 0,7.498 -5.274,13.757 -12.312,15.291 v 0 l -0.003,0.006 c -13.539,7.684 -14.474,27.731 -14.474,29.894 v 0 c 4.669,1.594 2.616,5.541 2.619,8.769 v 0 c 0.003,3.176 1.139,0.228 1.823,5.693 v 0 c 0.379,3.036 3.985,1.139 6.034,0.911 v 0 c 2.05,-0.227 2.733,2.847 3.531,5.238 v 0 c 0.796,2.392 2.277,3.531 2.277,3.531 v 0 c -0.114,-2.278 1.025,-8.313 0.342,-12.641 v 0 c -0.683,-4.327 -5.497,-12.753 -5.497,-18.789 v 0 c 0,-6.034 5.269,-8.426 5.269,-8.426 v 0 c -0.342,0.911 -0.342,2.277 0,3.644 v 0 c 0.341,1.367 0.797,3.53 0.911,5.238 v 0 c 0.113,1.708 2.391,3.644 2.391,3.644 v 0 c 0.115,-2.392 1.139,-3.416 1.139,-4.555 v 0 c 0,-1.139 1.025,-3.643 2.391,-6.036 v 0 c 1.367,-2.391 0.797,-4.896 -0.341,-5.465 v 0 c -1.139,-0.569 -1.253,-2.164 -2.164,-2.96 v 0 c -0.91,-0.798 -2.505,-0.798 -4.327,0 v 0 c 3.758,-3.872 5.808,-3.645 8.427,-3.417 v 0 c 2.619,0.228 0.455,1.481 4.782,2.847 v 0 c 4.328,1.366 2.96,4.099 4.213,6.376 v 0 c 1.253,2.278 4.1,6.491 4.1,9.452 v 0 c 0,2.961 -1.139,5.808 -2.202,8.427 v 0 c -1.063,2.619 -1.333,7.157 -0.354,10.178 v 0 c 0.66,2.039 0.507,2.5 -1.544,1.057 v 0 c -1.04,-0.732 -2.201,-1.822 -2.656,-4.023 v 0 c -0.456,-2.202 1.215,-6.909 -1.671,-6.529 v 0 c -1.752,0.23 -4.099,4.669 -4.099,9.452 v 0 c 0,4.782 2.505,18.902 2.505,22.774 v 0 c 0,3.872 -2.733,7.06 -4.327,9.452 v 0 c -1.594,2.391 -1.936,10.476 -1.594,14.689 v 0 c 0.341,4.214 -0.342,4.214 -1.822,2.733 v 0 c -1.481,-1.48 -2.277,-4.099 -2.277,-4.099 v 0 c -1.52,0.417 -2.051,2.239 -2.051,3.378 v 0 c 0,1.139 -1.821,2.885 -2.353,4.631 v 0 c -0.531,1.746 -0.151,5.314 0.987,7.288 v 0 c 0.835,3.037 1.84,5.135 0.11,4.336 v 0 c -3.472,-1.604 -7.018,-5.323 -7.095,-12.384 v 0 c -0.075,-7.059 1.975,-8.578 2.81,-12.525 v 0 c 0.834,-3.948 -0.684,-11.54 -1.063,-13.665 v 0 c -0.38,-2.125 -4.479,-5.845 -9.794,-7.364 v 0 c -5.313,-1.518 -4.782,-6.225 -4.858,-10.476 v 0 c -0.075,-4.251 -1.67,-5.542 -3.72,-7.288 v 0 c -2.05,-1.747 -6.605,-2.657 -6.908,-5.694 v 0 c -0.303,-3.037 1.291,-6.149 1.291,-8.122 v 0 c 0,-1.974 2.277,-6.833 2.429,-13.134 v 0 c 0.152,-6.301 5.77,-11.539 8.73,-14.5 v 0 c 2.961,-2.96 3.803,-5.629 2.811,-6.693 v 0 c -0.007,-0.007 -0.012,-0.023 -0.019,-0.031 v 0 c -2.313,-2.729 -3.715,-6.256 -3.715,-10.113 v 0 c 0,-3.656 1.264,-7.011 3.364,-9.676 v 0 c 0.065,-1.18 0.14,-2.088 0.217,-2.562 v 0 c 0.462,-2.863 -1.14,-3.417 -2.278,-3.421 v 0 c -1.139,-0.003 -1.519,0.308 -3.037,2.433 v 0 c -1.518,2.126 -7.06,4.783 -10.476,6.605 v 0 c -3.416,1.822 -23.306,14.576 -23.306,14.576 v 0 C 81.741,281.931 63.142,312.98 57.069,321.938 v 0 c -6.074,8.959 -9.794,18.752 -12.071,28.621 v 0 c -2.278,9.868 -0.911,15.183 0.608,19.889 v 0 c 1.518,4.707 0.986,6.681 5.238,11.16 v 0 c 4.25,4.479 4.099,6.301 5.01,9.262 v 0 c 0.911,2.96 4.63,3.492 1.746,3.492 v 0 c -2.885,0 -4.707,-2.809 -7.819,-4.024 v 0 c -3.113,-1.214 -3.189,-4.63 -3.189,-7.667 v 0 c 0,-3.037 -1.594,-3.189 -4.403,-3.796 v 0 c -2.809,-0.607 -4.934,-4.023 -5.845,-6.529 v 0 c -0.911,-2.505 0.152,-7.515 0.152,-9.413 v 0 c 0,-1.898 -1.215,-2.05 -2.278,-2.733 v 0 c -1.063,-0.683 -0.835,1.215 -1.215,2.581 v 0 c -0.379,1.366 -0.759,1.291 -0.834,1.974 v 0 c -0.077,0.683 -0.077,2.201 -0.38,1.215 v 0 c -0.303,-0.988 -1.974,-2.657 -1.974,-1.443 v 0 c 0,1.215 -1.215,2.05 -2.05,3.112 v 0 c -0.835,1.064 0.304,3.189 0.683,5.011 v 0 c 0.38,1.822 0.456,4.1 -0.151,6.301 v 0 c -0.608,2.202 -2.961,2.429 -3.796,3.872 v 0 c -0.836,1.442 0.075,3.568 1.518,5.921 v 0 c 1.443,2.354 1.746,5.163 1.898,7.819 v 0 c 0.152,2.657 -0.455,4.024 -2.201,5.543 v 0 c 1.973,-6.833 0.986,-7.744 -2.429,-10.25 v 0 c -3.417,-2.504 -1.975,-4.63 -3.569,-5.845 v 0 c -1.594,-1.214 -1.822,-3.643 -0.986,-8.198 v 0 c 0.834,-4.555 -0.988,-5.467 -2.203,-5.315 v 0 c -1.214,0.152 -1.441,4.631 -2.125,6.149 v 0 c -0.509,1.129 -2.024,1.04 -3.236,0.952 v 0 c -0.417,-0.03 -0.799,-0.061 -1.091,-0.041 v 0 c -1.139,0.076 -0.835,2.354 -2.278,2.354 v 0 c -1.442,0 -3.34,-0.379 -3.796,-1.67 v 0 c 2.809,-0.456 5.087,-3.644 5.998,-4.252 v 0 c 0.911,-0.607 3.188,-4.327 3.416,-6.073 v 0 c 0.228,-1.746 -2.353,-2.884 -2.505,-6.756 v 0 c -0.152,-3.872 7.06,-8.124 7.288,-9.793 v 0 c 0.228,-1.671 1.518,-3.796 2.733,-6.985 v 0 c 1.214,-3.188 5.39,-7.212 6.301,-7.819 v 0 c 0.911,-0.607 0.455,-1.594 0.455,-3.644 v 0 c 0,-2.05 1.063,-5.617 2.354,-8.047 v 0 c 1.29,-2.429 1.063,-2.733 0.151,-2.353 v 0 c -0.911,0.379 -4.706,4.479 -6.073,5.921 v 0 c -1.366,1.442 -6.149,9.49 -7.06,11.008 v 0 c -0.911,1.518 -2.429,7.363 -3.188,9.793 v 0 c -0.759,2.429 -4.1,5.769 -3.796,4.935 v 0 c 0.304,-0.835 0.531,-4.327 0.987,-5.315 v 0 c 0.455,-0.987 0.455,-6.073 -1.063,-6.833 v 0 c -1.519,-0.758 -1.746,0.077 -4.023,2.051 v 0 c -2.278,1.973 -1.974,4.63 -2.809,7.211 v 0 c -0.835,2.582 0.531,7.364 -0.304,6.378 v 0 C 2.029,358.681 0.36,355.037 0.056,352.486 v 0 C 0.019,352.179 0.002,351.869 0,351.558 v 0 -0.1 c 0.013,-2.248 0.857,-4.548 1.624,-6.061 v 0 c 0.886,-1.746 0.558,-6.301 0.05,-13.285 v 0 c -0.508,-6.985 3.013,-11.008 5.138,-12.754 v 0 c 2.126,-1.747 6.377,-2.961 7.137,-4.327 v 0 c 0.759,-1.368 -0.304,-2.43 -1.367,-3.417 v 0 c -0.69,-0.641 -1.923,-0.514 -3.451,-0.388 v 0 c -0.826,0.069 -1.738,0.137 -2.698,0.085 v 0 C 3.7,311.159 2.789,309.336 3.169,309.488 v 0 c 0.379,0.153 2.126,0.304 3.264,0.38 v 0 c 1.139,0.076 1.139,-1.595 4.1,-1.898 v 0 c 2.96,-0.303 1.29,-2.353 -0.911,-2.961 v 0 c -2.202,-0.607 -0.38,-2.732 -1.443,-3.188 v 0 C 7.116,301.366 5.37,300.606 5.295,296.734 v 0 c -0.077,-3.871 4.402,-5.01 5.541,-5.617 v 0 c 1.139,-0.608 2.961,-4.1 2.429,-7.667 v 0 c -0.531,-3.569 6.569,-3.846 10.061,-3.315 v 0 c 3.492,0.532 2.617,-2.38 1.858,-2.455 v 0 c -0.759,-0.076 -1.822,-2.657 -4.175,-3.112 v 0 c -2.354,-0.456 -4.48,-1.899 -5.846,-3.341 v 0 c -1.366,-1.442 -2.505,-0.835 -4.327,-0.759 v 0 c -1.822,0.076 -5.01,1.898 -6.376,2.847 v 0 c -1.368,0.948 -2.582,4.213 -2.734,3.226 v 0 c -0.152,-0.987 -0.075,-1.063 1.671,-6.301 v 0 c 1.746,-5.238 4.858,-3.264 6.3,-6.528 v 0 c 1.442,-3.265 4.024,-3.797 6.074,-5.315 v 0 c 2.049,-1.518 2.961,-3.947 0.531,-3.947 v 0 c -2.429,0 -1.594,-1.898 -5.542,-1.366 v 0 c -3.948,0.531 -5.086,3.035 -5.01,2.277 v 0 c 0.076,-0.759 0.759,-2.429 2.96,-4.1 v 0 c 1.279,-0.97 2.046,-0.839 2.895,-0.707 v 0 c 0.613,0.095 1.269,0.19 2.192,-0.128 v 0 c 1.67,-1.366 3.644,-2.126 6.529,-2.201 v 0 c 2.884,-0.076 3.264,0.379 7.516,1.214 v 0 c 4.25,0.836 7.439,0.153 11.159,0.153 v 0 c 3.719,0 9.261,-0.532 11.539,-1.443 v 0 c 2.277,-0.911 1.898,-3.948 1.822,-5.01 v 0 c -0.076,-1.063 -1.443,-1.595 -2.581,-1.595 v 0 c -1.139,0 -3.644,-1.291 -6.301,-1.594 v 0 c -2.657,-0.303 -4.935,0.759 -9.414,2.353 v 0 c -4.479,1.594 -5.694,6.529 -5.314,2.961 v 0 c 0.379,-3.568 3.872,-6.073 4.1,-6.908 v 0 c 0.227,-0.835 0.835,-1.595 3.416,-2.733 v 0 c 2.58,-1.139 1.822,-3.037 0.987,-3.34 v 0 c -0.836,-0.304 -0.683,-2.43 1.442,-4.252 v 0 c 1.62,-1.388 3.724,-1.366 5.139,-1.344 v 0 c 0.441,0.007 0.816,0.013 1.087,-0.022 v 0 c 1.138,-0.152 1.593,-0.684 1.593,-0.684 v 0 c -0.455,-1.67 0,-9.489 0.532,-8.047 v 0 c 0.531,1.443 0.152,1.746 3.416,2.429 v 0 c 1.739,0.364 3.543,-0.673 5.392,-1.71 v 0 c 1.621,-0.909 3.277,-1.818 4.953,-1.782 v 0 c 3.59,0.077 5.218,5.239 20.781,5.542 v 0 c 15.562,0.304 17.081,-5.997 17.232,-8.578 v 0 c 0.152,-2.582 -0.911,-5.162 -3.72,-5.618 v 0 c -2.809,-0.456 -4.555,3.189 -8.654,3.264 v 0 c -4.1,0.077 -2.202,-1.745 -7.516,-3.492 v 0 c -5.314,-1.746 -7.895,-2.506 -7.287,-4.099 v 0 c 8.122,3.113 13.74,0.379 16.473,-2.657 v 0 c 2.733,-3.037 6.909,-5.163 7.895,-6.756 v 0 c 4.176,-7.972 7.288,-7.592 13.134,-7.44 v 0 c 5.845,0.151 9.869,1.214 9.337,0.38 v 0 c -0.531,-0.835 -0.455,-2.582 1.443,-3.189 v 0 c 1.897,-0.607 3.567,-1.67 3.872,-2.961 v 0 c 0.303,-1.29 -0.988,-3.264 -3.223,-3.719 v 0 c -2.236,-0.456 -3.458,2.276 -7.178,2.504 v 0 c -3.72,0.228 -5.997,-2.96 -7.06,-4.175 v 0 c -1.063,-1.214 -2.28,-5.187 0.453,-4.428 v 0 c 2.733,0.76 6.986,0.101 7.214,-2.025 v 0 c 0.227,-2.126 -2.808,-1.822 -0.531,-5.314 v 0 c 2.278,-3.492 5.39,-3.492 7.102,-3.492 v 0 c 1.712,0 4.817,-2.581 5.955,-5.086 v 0 c 1.139,-2.505 4.099,-6.453 9.49,-6.453 v 0 c 5.39,0 8.502,5.314 10.704,5.922 v 0 c 2.202,0.607 4.744,-1.727 3.283,-2.297 v 0 c -3.48,-1.356 -0.456,-2.429 1.974,-1.366 v 0 c 2.429,1.063 5.143,-0.285 5.675,-1.272 v 0 c 0.531,-0.987 0.607,-3.72 6.073,-3.947 v 0 c 5.465,-0.228 8.502,5.921 13.513,5.921 v 0 c 2.581,0.227 5.086,-0.608 6.757,-1.519 v 0 c 1.669,-0.91 5.769,-5.997 17.536,-5.997 v 0 c 11.767,0 11.615,6.377 21.256,7.364 v 0 c 3.644,0.607 4.175,-0.531 9.869,-3.948 v 0 c 5.694,-3.416 8.958,-1.594 9.642,-0.607 v 0 c 0.683,0.987 -0.077,4.631 4.25,4.061 v 0 c 5.313,-0.699 6.833,-0.721 6.681,-0.037 v 0 c -0.151,0.683 -2.429,3.036 -1.974,3.112 v 0 c 0.456,0.076 4.707,-0.151 5.846,-0.987 v 0 c 1.138,-0.835 4.403,-4.327 9.641,-4.327 v 0 c 5.238,0 6.452,3.948 9.034,7.819 v 0 c 2.581,3.872 5.845,3.568 10.324,4.403 v 0 c 4.48,0.835 1.974,5.466 1.291,8.275 v 0 c -0.683,2.809 5.238,1.67 7.592,1.518 v 0 c 2.353,-0.151 1.973,1.443 0.987,3.493 v 0 c -0.987,2.049 -5.163,5.01 -7.668,5.541 v 0 c -2.505,0.531 -5.618,-1.594 -7.364,-1.821 v 0 c -1.746,-0.228 -3.112,0.835 -3.264,3.264 v 0 c -0.151,2.429 3.644,2.126 4.631,3.112 v 0 c 0.987,0.987 0.683,3.037 0.683,3.037 v 0 c 7.06,-1.822 13.893,-0.759 17.46,0.38 v 0 c 3.569,1.138 2.961,2.504 3.796,5.162 v 0 c 0.836,2.657 6.453,5.693 7.895,7.136 v 0 c 1.443,1.442 6.53,4.478 9.034,4.555 v 0 c 2.506,0.076 5.618,-0.152 8.047,-0.987 v 0 c 2.429,-0.836 1.974,-0.228 0.683,1.063 v 0 c -1.29,1.29 -4.63,2.049 -7.591,3.112 v 0 c -2.96,1.063 -3.112,3.492 -7.537,3.492 v 0 c -4.424,0 -5.748,-2.96 -5.748,-2.96 v 0 c 0,0 -6.453,-1.291 -6.453,5.238 v 0 c 0,6.528 7.288,7.288 10.173,7.971 v 0 c 1.69,0.4 4.241,0.357 7.362,0.314 v 0 c 2.205,-0.03 4.693,-0.06 7.365,0.066 v 0 c 6.453,0.303 10.628,-5.695 13.893,-5.77 v 0 c 3.264,-0.076 6.68,3.492 8.806,4.403 v 0 c 2.126,0.911 3.72,-1.822 4.403,-2.96 v 0 c 0.455,1.29 0.304,4.175 -0.379,6.452 v 0 c -0.684,2.278 4.555,2.278 7.288,2.885 v 0 c 2.733,0.608 2.656,3.037 2.125,5.086 v 0 c -0.531,2.05 0.38,1.974 2.809,2.885 v 0 c 2.429,0.911 2.505,3.416 3.795,4.859 v 0 c 1.292,1.442 2.431,3.947 1.14,4.859 v 0 c -3.113,-3.113 -10.022,-4.632 -13.817,-4.632 v 0 c -3.796,0 -8.654,0.304 -8.654,4.707 v 0 c 0,4.403 8.957,4.175 13.816,4.555 v 0 c 4.859,0.38 9.262,-0.075 15.639,-1.138 v 0 c 6.376,-1.063 6.149,0 8.199,1.214 v 0 c 1.182,0.7 1.303,0.643 1.821,0.586 v 0 c 0.379,-0.042 0.972,-0.084 2.354,0.173 v 0 c 3.264,0.607 4.479,4.1 4.479,4.1 v 0 c -1.746,-1.974 -4.327,-1.215 -5.997,-1.595 v 0 c -0.782,-0.177 -1.081,0.127 -1.373,0.43 v 0 c -0.332,0.347 -0.654,0.693 -1.664,0.33 v 0 c -1.898,-0.683 -2.429,2.96 -1.67,3.036 v 0 c 0.759,0.076 0.304,2.126 2.429,2.581 v 0 c 2.126,0.456 3.644,3.189 4.099,4.1 v 0 c 0.457,0.911 2.81,1.822 5.087,4.023 v 0 c 2.278,2.201 3.948,9.337 2.809,7.364 v 0 c -1.139,-1.974 -6.301,-4.631 -9.869,-5.086 v 0 c -3.568,-0.456 -3.265,3.34 -6.074,4.098 v 0 c -2.809,0.76 -4.023,1.899 -5.921,2.734 v 0 c -1.898,0.835 -1.897,1.746 -1.366,2.277 v 0 c 0.532,0.532 1.518,1.064 6.984,1.519 v 0 c 5.466,0.455 4.403,0.986 5.086,6.224 v 0 c 0.684,5.239 3.037,2.886 6.605,6.302 v 0 c 3.568,3.416 1.594,6.604 0.683,7.743 v 0 c -0.911,1.139 -2.277,0 -2.126,2.05 v 0 c 0.152,2.049 -0.607,1.594 -2.732,2.961 v 0 c -2.126,1.366 -0.304,2.277 0.759,2.527 v 0 c 1.063,0.25 1.822,0.509 2.733,1.116 v 0 c 0.911,0.608 2.429,0.683 4.631,1.063 v 0 c -1.822,1.367 -5.998,1.063 -8.123,0.988 v 0 c -2.126,-0.076 -4.935,4.554 1.062,6.528 v 0 c 7.192,2.367 8.654,9.49 8.731,12.602 v 0 c 0.076,3.112 -0.152,6.908 -0.76,9.565 v 0 c -0.606,2.658 0.38,5.467 1.063,6.985 v 0 c 0.683,1.517 0.988,4.555 0.911,6.529 v 0 c -0.076,1.973 -1.291,4.023 -3.036,5.996 v 0 c 0.607,-5.618 -0.076,-8.198 -0.911,-11.311 v 0 c -0.836,-3.112 -3.416,-4.175 -5.314,-4.479 v 0 c -1.898,-0.303 -1.823,5.01 -1.67,7.365 v 0 c 0.152,2.352 1.138,3.87 0.835,4.933 v 0 c -0.76,-1.138 -3.644,-3.416 -4.555,-8.122 v 0 c -0.911,-4.707 -3.264,-7.668 -3.569,-9.262 v 0 c -0.303,-1.594 -6.224,-8.047 -9.033,-11.539 v 0 c -2.809,-3.492 -3.856,-2.808 -3.341,-2.05 v 0 c 0.646,0.949 -0.182,1.433 1.215,3.188 v 0 c 1.936,2.429 1.746,7.44 2.202,9.718 v 0 c 1.138,0.986 6.908,7.971 7.971,10.173 v 0 c 1.063,2.201 0.683,6.225 2.809,7.439 v 0 c 2.125,1.215 3.415,2.961 4.858,5.693 v 0 c 1.443,2.734 0.077,5.39 -0.835,6.53 v 0 c -0.911,1.138 -0.683,3.188 0.152,4.098 v 0 c 0.835,0.912 2.126,3.037 2.429,3.797 v 0 c 0.304,0.759 2.733,2.505 4.252,3.795 v 0 c 1.518,1.291 2.505,1.367 2.505,1.367 v 0 c 0,0 -1.519,0.531 -2.505,0.835 v 0 c -0.988,0.304 -2.885,0.987 -3.492,-1.063 v 0 c -0.608,-2.05 -1.14,-0.835 -2.354,-0.532 v 0 c -1.215,0.305 -3.189,-1.897 -3.568,-3.492 v 0 c -0.379,-1.594 0,-5.693 -2.125,-4.707 v 0 c -2.126,0.988 -1.14,6.302 -0.532,8.807 v 0 c 0.607,2.506 -0.608,3.872 -1.594,5.01 v 0 c -0.987,1.14 -1.139,2.961 -2.126,4.555 v 0 c -0.987,1.595 -2.505,1.974 -4.479,4.707 v 0 c -1.974,2.733 -0.228,7.061 -0.228,7.061 v 0 c 0,0 -2.429,-3.189 -2.581,-6.757 M 194.948,222.052 c 0,0 2.928,0 3.919,3.987 v 0 h 1.765 1.767 c 0.991,-3.987 3.919,-3.987 3.919,-3.987 v 0 L 200.6,192.275 Z m -126.711,104.584 4.306,-5.777 c 31.591,34.525 77.276,56.218 128.089,56.218 v 0 c 50.652,0 96.207,-21.555 127.786,-55.886 v 0 l 4.646,5.406 c -32.856,35.356 -80.024,57.517 -132.432,57.517 v 0 c -52.387,0 -99.54,-22.145 -132.395,-57.478 m 305,-123.207 C 371.837,124.938 316.785,60.206 242.773,41.938 v 0 c 0.592,-9.655 -3.071,-14.598 -2.75,-14.532 v 0 c 85.882,17.757 152.15,91.183 158.893,164.034 v 0 c -11.691,-25.356 -28.177,-42.498 -28.177,-42.498 v 0 c 6.253,18.049 9.646,37.41 9.646,57.553 v 0 z M 31.068,147.404 c 0,0 -13.399,10.937 -30.025,42.593 v 0 C 15.846,95.255 86.22,56.31 117.536,42.076 v 0 c -0.57,6.946 3.04,14.162 3.04,14.162 v 0 C 64.129,86.221 29.526,138.543 28.047,202.524 v 0 l -7.163,2.959 c 0.114,-20.352 3.693,-39.895 10.184,-58.079 m 167.659,-8.08 c -10.41,-0.441 -12.242,-1.252 -12.242,-1.252 v 0 c 2.278,0.113 2.278,-1.082 3.758,-1.082 v 0 c 1.48,0 3.702,-1.253 5.922,-2.05 v 0 c 2.22,-0.798 1.309,-4.726 -0.228,-5.125 v 0 c -1.537,-0.398 -4.498,-2.391 -4.669,-4.668 v 0 c -0.171,-2.278 1.936,-4.839 2.391,-7.801 v 0 c 0.456,-2.961 -4.042,-6.319 -13.892,-10.533 v 0 c -9.85,-4.213 -13.323,-7.573 -15.885,-9.679 v 0 c -2.562,-2.107 -1.823,-6.776 -2.22,-8.256 v 0 c -0.399,-1.48 -3.872,-2.392 -7.345,-2.733 v 0 c -1.567,-0.154 -2.648,0.386 -3.356,0.927 v 0 c -0.862,0.659 -1.174,1.317 -1.143,0.724 v 0 c 0.057,-1.082 0.627,-3.075 1.709,-3.814 v 0 c 1.081,-0.741 3.586,-0.342 3.586,-0.342 v 0 c 0,0 0.058,-0.911 -2.562,-1.765 v 0 c -1.381,-0.451 -2.525,-0.284 -3.213,-0.117 v 0 c -0.618,0.149 -0.871,0.299 -0.601,0.003 v 0 c 0.568,-0.626 2.163,-1.765 3.529,-1.765 v 0 c 1.367,0 3.132,-1.025 5.409,-1.025 v 0 c 2.278,0 2.847,2.733 2.734,1.025 v 0 c -0.115,-1.708 -1.082,-2.505 -2.563,-3.303 v 0 c -1.48,-0.797 -6.377,-4.895 -7.572,-7.515 v 0 c -1.196,-2.619 1.025,-4.84 -0.114,-5.352 v 0 c -1.139,-0.513 -5.978,-1.595 -7.515,-3.644 v 0 c -1.538,-2.05 -3.36,-3.36 -5.068,-3.587 v 0 c -1.709,-0.228 -3.416,0.398 -4.954,2.05 v 0 c -1.537,1.651 -1.594,3.131 -1.822,1.822 v 0 c -0.227,-1.31 0.228,-4.1 0.74,-6.036 v 0 c 0.513,-1.936 3.189,-2.96 1.082,-3.245 v 0 c -0.768,-0.105 -1.747,0.147 -2.618,0.398 v 0 c -1.52,0.44 -2.712,0.879 -1.879,-0.568 v 0 c 3.074,-6.491 3.53,-4.841 5.807,-5.353 v 0 c 2.277,-0.512 6.263,-0.227 6.263,-0.227 v 0 c 0.797,-3.189 2.733,-6.263 2.733,-7.402 v 0 c 0,-1.139 -0.113,-1.595 1.196,-4.783 v 0 c 1.31,-3.188 2.049,-3.474 1.651,-8.199 v 0 c -0.399,-4.725 4.726,-4.953 6.889,-4.84 v 0 c 2.164,0.115 3.131,-2.334 4.384,-6.263 v 0 c 1.253,-3.928 4.384,-6.034 6.605,-6.034 v 0 c 2.22,0 2.79,3.017 4.783,3.074 v 0 c 1.992,0.057 1.29,-4.935 5.238,-7.402 v 0 C 176.236,1.986 176.332,0.002 180.257,0 v 0 h 0.022 c 2.734,0.004 2.221,0.342 3.644,1.139 v 0 c 1.424,0.797 2.847,3.871 2.562,3.416 v 0 C 186.201,4.1 184.777,4.043 184.208,3.644 v 0 c -0.569,-0.399 -2.278,0.057 -3.929,0.683 v 0 c -1.651,0.627 -3.359,4.271 -4.042,6.149 v 0 c -0.683,1.879 0.399,3.872 4.726,1.48 v 0 c 4.327,-2.391 11.083,-3.093 13.513,-3.093 v 0 c 2.429,0 9.109,0.38 11.538,0.835 v 0 c 2.43,0.456 11.16,4.251 14.349,7.288 v 0 c 3.188,3.036 5.162,2.885 8.047,4.859 v 0 c 1.803,1.234 3.458,5.992 5.557,12.029 v 0 c 1.427,4.102 0.544,8.238 -0.737,13.042 v 0 c -3.416,12.811 -8.996,13.437 -8.996,13.437 v 0 c 4.498,-3.872 5.58,-7.687 5.296,-7.744 v 0 c -0.285,-0.056 -2.961,0.172 -1.253,-0.91 v 0 c 1.708,-1.082 2.22,-2.335 2.368,-4.043 v 0 c 0.147,-1.708 -1.115,-2.107 -1.856,-2.79 v 0 c -0.74,-0.683 -0.284,-1.651 -0.569,-3.246 v 0 c -0.285,-1.593 -1.367,-0.284 -1.936,0.057 v 0 c -0.569,0.342 -1.082,0.912 -2.334,1.082 v 0 c -1.253,0.171 -1.993,0.058 -1.936,-0.797 v 0 c 0.056,-0.854 1.537,-3.302 2.847,-3.473 v 0 c 1.309,-0.171 1.879,-1.423 1.708,-2.449 v 0 c -0.171,-1.024 -2.676,-3.928 -3.758,-5.977 v 0 c -1.082,-2.051 -4.669,-4.897 -6.491,-5.466 v 0 c -1.822,-0.57 -2.334,1.024 -2.733,1.106 v 0 c -0.399,0.082 -1.082,1.683 -1.48,1.912 v 0 c -0.398,0.227 -1.252,0.853 -1.879,0.967 v 0 c -0.626,0.115 -1.309,-1.025 -1.708,-1.48 v 0 c -0.399,-0.456 -1.253,0.74 -1.537,1.196 v 0 c -0.285,0.455 -0.342,0.854 -0.342,1.765 v 0 c 0,0.91 -0.74,2.562 -1.651,3.928 v 0 c -0.911,1.366 -3.758,3.302 -6.776,3.417 v 0 c -3.017,0.113 -4.042,-0.627 -4.042,-0.627 v 0 c 6.832,-4.46 3.037,-10.837 -1.48,-11.064 v 0 c -4.844,0 -7.174,3.663 -7.744,4.687 v 0 c -0.57,1.025 -1.992,1.025 -3.018,1.025 v 0 c -1.025,0 -2.619,1.196 -4.327,3.36 v 0 c -1.708,2.163 -1.708,3.358 -1.936,4.952 v 0 c -0.227,1.595 0,4.385 0,4.954 v 0 c 0,0.57 1.082,3.531 1.481,6.321 v 0 c 0.399,2.789 -0.399,3.814 -0.512,4.041 v 0 c -0.115,0.228 -0.798,0.969 0.284,1.481 v 0 c 1.082,0.512 5.409,5.58 5.409,5.58 v 0 c 4.668,-11.786 7.345,-12.697 13.038,-14.861 v 0 c 5.694,-2.163 11.616,-1.765 14.975,0 v 0 c 3.359,1.765 4.441,5.352 3.928,5.011 v 0 c -0.512,-0.342 -1.423,-0.684 -1.765,-0.684 v 0 c -0.341,0 -0.284,1.652 -0.284,2.107 v 0 c 0,0.456 -0.399,1.594 -0.57,0.342 v 0 c -0.17,-1.252 -1.309,-1.879 -2.676,-2.562 v 0 c -1.366,-0.683 -2.277,0.683 -2.961,0.683 v 0 c -0.683,0 -1.764,0.74 -1.537,3.131 v 0 c 0.228,2.391 -0.569,3.531 -1.309,3.644 v 0 c -0.323,0.05 -0.603,-0.161 -0.891,-0.371 v 0 c -0.373,-0.272 -0.76,-0.544 -1.273,-0.255 v 0 c -0.911,0.513 -0.171,2.107 0.512,2.79 v 0 c 0.684,0.683 1.709,3.132 1.994,4.043 v 0 c 0.284,0.911 0.341,2.22 -0.456,1.878 v 0 c -0.797,-0.341 -2.676,-1.707 -3.587,-2.277 v 0 c -0.911,-0.57 -2.486,0.986 -1.866,6.23 v 0 c 0.558,4.72 1.254,4.282 2.41,3.844 v 0 c 0.487,-0.185 1.057,-0.37 1.734,-0.167 v 0 c 2.277,0.683 1.423,3.758 1.537,7.06 v 0 c 0.113,3.302 3.416,3.587 4.213,3.815 v 0 c 0.797,0.228 5.466,3.359 7.288,4.896 v 0 c 1.822,1.538 8.882,8.825 10.932,8.996 v 0 c 2.05,0.171 2.619,-0.797 3.017,-1.765 v 0 c 0.399,-0.968 -1.65,-3.644 -2.79,-4.953 v 0 c -1.138,-1.31 -3.415,-3.985 -5.75,-5.979 v 0 c -1.511,-1.29 -2.997,-1.267 -3.704,-1.245 v 0 c -0.386,0.011 -0.54,0.023 -0.339,-0.178 v 0 c 0.57,-0.57 1.538,-1.309 3.645,-1.48 v 0 c 2.106,-0.171 3.928,2.278 5.921,3.359 v 0 c 1.992,1.081 4.498,2.904 4.498,2.904 v 0 c 8.028,7.06 9.224,10.647 10.306,12.697 v 0 c 1.081,2.049 -0.456,4.612 -1.025,5.978 v 0 c -0.57,1.366 -1.595,8.825 -2.278,11.559 v 0 c -0.683,2.732 -4.555,8.084 -7.288,10.361 v 0 c -2.733,2.278 -4.671,4.551 -7.686,6.321 v 0 c -1.64,0.962 -2.26,0.875 -3.58,0.786 v 0 c -0.788,-0.052 -1.827,-0.104 -3.48,0.068 v 0 c -4.587,0.474 -5.498,1.57 -12.567,1.57 v 0 c -1.126,0 -2.409,-0.028 -3.888,-0.09 m -18.39,-2.733 c 1.081,-0.057 0.796,-2.221 1.935,-2.449 v 0 c 0.301,-0.059 -0.227,-3.586 0.171,-4.668 v 0 c 0.398,-1.082 0.513,-3.132 -1.082,-6.491 v 0 c -1.594,-3.359 -4.725,-4.214 -1.822,-3.52 v 0 c 2.904,0.693 3.644,3.007 3.815,2.438 v 0 c 0.17,-0.569 1.082,-3.473 1.366,-2.05 v 0 c 0.285,1.424 2.335,2.961 3.417,3.93 v 0 c 1.082,0.967 0.911,2.619 1.48,4.327 v 0 c 0.569,1.707 -0.569,2.277 -1.025,2.732 v 0 c -0.455,0.456 -0.683,2.05 -2.505,4.043 v 0 c -1.417,1.55 -4.109,1.722 -5.235,1.722 v 0 c -0.322,0 -0.515,-0.014 -0.515,-0.014" /></clipPath><linearGradient
       id="linearGradient30"
       spreadMethod="pad"
       gradientTransform="matrix(0,402.10522,402.10522,0,200.6024,0)"
       gradientUnits="userSpaceOnUse"
       y2="0"
       x2="1"
       y1="0"
       x1="0"><stop
         id="stop24"
         offset="0"
         style="stop-opacity:1;stop-color:#09092b" /><stop
         id="stop26"
         offset="0.5145727"
         style="stop-opacity:1;stop-color:#121146" /><stop
         id="stop28"
         offset="1"
         style="stop-opacity:1;stop-color:#121146" /></linearGradient></defs><g
     transform="matrix(1.3333333,0,0,-1.3333333,0,536.14)"
     id="g10"><g
       id="g12"><g
         clip-path="url(#clipPath18)"
         id="g14"><g
           id="g20"><g
             id="g22"><path
               id="path32"
               style="fill:url(#linearGradient30);stroke:none"
               d="m 372.573,395.349 c -0.151,-3.568 3.265,-7.516 4.707,-10.552 v 0 c 1.443,-3.037 -2.581,-3.644 -4.1,-5.542 v 0 c -1.518,-1.898 -0.227,-6.453 0.532,-9.186 v 0 c 0.759,-2.733 -0.987,-3.644 -1.746,-5.238 v 0 c -0.759,-1.595 -1.594,-0.228 -2.353,0.834 v 0 c -0.228,-2.884 -2.05,-5.693 -3.189,-5.161 v 0 c -1.138,0.531 -1.67,3.72 -1.595,8.275 v 0 c 0.077,4.554 -1.214,7.971 -5.389,9.489 v 0 c -4.176,1.518 -4.327,3.416 -4.327,5.466 v 0 c 0,2.049 -1.291,4.782 -3.341,6.528 v 0 c -2.049,1.746 -6.376,3.34 -9.185,3.34 v 0 c 1.29,-0.531 2.581,-2.277 2.961,-3.795 v 0 c 0.379,-1.518 -0.38,-2.126 4.175,-8.047 v 0 c 4.555,-5.922 7.971,-10.704 7.971,-22.774 v 0 c 0,-21.864 -20.565,-51.512 -45.186,-74.392 v 0 c -34.264,-31.841 -76.383,-56.552 -81.863,-59.865 v 0 c -7.064,-4.27 -7.52,-4.357 -9.903,-5.732 v 0 c -1.974,-1.138 -3.468,-3.074 -4.023,-3.757 v 0 c -2.496,-3.075 -5.694,1.442 -3.538,5.489 v 0 l -0.007,0.02 c 1.948,2.611 3.118,5.84 3.118,9.348 v 0 c 0,7.498 -5.274,13.757 -12.312,15.291 v 0 l -0.003,0.006 c -13.539,7.684 -14.474,27.731 -14.474,29.894 v 0 c 4.669,1.594 2.616,5.541 2.619,8.769 v 0 c 0.003,3.176 1.139,0.228 1.823,5.693 v 0 c 0.379,3.036 3.985,1.139 6.034,0.911 v 0 c 2.05,-0.227 2.733,2.847 3.531,5.238 v 0 c 0.796,2.392 2.277,3.531 2.277,3.531 v 0 c -0.114,-2.278 1.025,-8.313 0.342,-12.641 v 0 c -0.683,-4.327 -5.497,-12.753 -5.497,-18.789 v 0 c 0,-6.034 5.269,-8.426 5.269,-8.426 v 0 c -0.342,0.911 -0.342,2.277 0,3.644 v 0 c 0.341,1.367 0.797,3.53 0.911,5.238 v 0 c 0.113,1.708 2.391,3.644 2.391,3.644 v 0 c 0.115,-2.392 1.139,-3.416 1.139,-4.555 v 0 c 0,-1.139 1.025,-3.643 2.391,-6.036 v 0 c 1.367,-2.391 0.797,-4.896 -0.341,-5.465 v 0 c -1.139,-0.569 -1.253,-2.164 -2.164,-2.96 v 0 c -0.91,-0.798 -2.505,-0.798 -4.327,0 v 0 c 3.758,-3.872 5.808,-3.645 8.427,-3.417 v 0 c 2.619,0.228 0.455,1.481 4.782,2.847 v 0 c 4.328,1.366 2.96,4.099 4.213,6.376 v 0 c 1.253,2.278 4.1,6.491 4.1,9.452 v 0 c 0,2.961 -1.139,5.808 -2.202,8.427 v 0 c -1.063,2.619 -1.333,7.157 -0.354,10.178 v 0 c 0.66,2.039 0.507,2.5 -1.544,1.057 v 0 c -1.04,-0.732 -2.201,-1.822 -2.656,-4.023 v 0 c -0.456,-2.202 1.215,-6.909 -1.671,-6.529 v 0 c -1.752,0.23 -4.099,4.669 -4.099,9.452 v 0 c 0,4.782 2.505,18.902 2.505,22.774 v 0 c 0,3.872 -2.733,7.06 -4.327,9.452 v 0 c -1.594,2.391 -1.936,10.476 -1.594,14.689 v 0 c 0.341,4.214 -0.342,4.214 -1.822,2.733 v 0 c -1.481,-1.48 -2.277,-4.099 -2.277,-4.099 v 0 c -1.52,0.417 -2.051,2.239 -2.051,3.378 v 0 c 0,1.139 -1.821,2.885 -2.353,4.631 v 0 c -0.531,1.746 -0.151,5.314 0.987,7.288 v 0 c 0.835,3.037 1.84,5.135 0.11,4.336 v 0 c -3.472,-1.604 -7.018,-5.323 -7.095,-12.384 v 0 c -0.075,-7.059 1.975,-8.578 2.81,-12.525 v 0 c 0.834,-3.948 -0.684,-11.54 -1.063,-13.665 v 0 c -0.38,-2.125 -4.479,-5.845 -9.794,-7.364 v 0 c -5.313,-1.518 -4.782,-6.225 -4.858,-10.476 v 0 c -0.075,-4.251 -1.67,-5.542 -3.72,-7.288 v 0 c -2.05,-1.747 -6.605,-2.657 -6.908,-5.694 v 0 c -0.303,-3.037 1.291,-6.149 1.291,-8.122 v 0 c 0,-1.974 2.277,-6.833 2.429,-13.134 v 0 c 0.152,-6.301 5.77,-11.539 8.73,-14.5 v 0 c 2.961,-2.96 3.803,-5.629 2.811,-6.693 v 0 c -0.007,-0.007 -0.012,-0.023 -0.019,-0.031 v 0 c -2.313,-2.729 -3.715,-6.256 -3.715,-10.113 v 0 c 0,-3.656 1.264,-7.011 3.364,-9.676 v 0 c 0.065,-1.18 0.14,-2.088 0.217,-2.562 v 0 c 0.462,-2.863 -1.14,-3.417 -2.278,-3.421 v 0 c -1.139,-0.003 -1.519,0.308 -3.037,2.433 v 0 c -1.518,2.126 -7.06,4.783 -10.476,6.605 v 0 c -3.416,1.822 -23.306,14.576 -23.306,14.576 v 0 C 81.741,281.931 63.142,312.98 57.069,321.938 v 0 c -6.074,8.959 -9.794,18.752 -12.071,28.621 v 0 c -2.278,9.868 -0.911,15.183 0.608,19.889 v 0 c 1.518,4.707 0.986,6.681 5.238,11.16 v 0 c 4.25,4.479 4.099,6.301 5.01,9.262 v 0 c 0.911,2.96 4.63,3.492 1.746,3.492 v 0 c -2.885,0 -4.707,-2.809 -7.819,-4.024 v 0 c -3.113,-1.214 -3.189,-4.63 -3.189,-7.667 v 0 c 0,-3.037 -1.594,-3.189 -4.403,-3.796 v 0 c -2.809,-0.607 -4.934,-4.023 -5.845,-6.529 v 0 c -0.911,-2.505 0.152,-7.515 0.152,-9.413 v 0 c 0,-1.898 -1.215,-2.05 -2.278,-2.733 v 0 c -1.063,-0.683 -0.835,1.215 -1.215,2.581 v 0 c -0.379,1.366 -0.759,1.291 -0.834,1.974 v 0 c -0.077,0.683 -0.077,2.201 -0.38,1.215 v 0 c -0.303,-0.988 -1.974,-2.657 -1.974,-1.443 v 0 c 0,1.215 -1.215,2.05 -2.05,3.112 v 0 c -0.835,1.064 0.304,3.189 0.683,5.011 v 0 c 0.38,1.822 0.456,4.1 -0.151,6.301 v 0 c -0.608,2.202 -2.961,2.429 -3.796,3.872 v 0 c -0.836,1.442 0.075,3.568 1.518,5.921 v 0 c 1.443,2.354 1.746,5.163 1.898,7.819 v 0 c 0.152,2.657 -0.455,4.024 -2.201,5.543 v 0 c 1.973,-6.833 0.986,-7.744 -2.429,-10.25 v 0 c -3.417,-2.504 -1.975,-4.63 -3.569,-5.845 v 0 c -1.594,-1.214 -1.822,-3.643 -0.986,-8.198 v 0 c 0.834,-4.555 -0.988,-5.467 -2.203,-5.315 v 0 c -1.214,0.152 -1.441,4.631 -2.125,6.149 v 0 c -0.509,1.129 -2.024,1.04 -3.236,0.952 v 0 c -0.417,-0.03 -0.799,-0.061 -1.091,-0.041 v 0 c -1.139,0.076 -0.835,2.354 -2.278,2.354 v 0 c -1.442,0 -3.34,-0.379 -3.796,-1.67 v 0 c 2.809,-0.456 5.087,-3.644 5.998,-4.252 v 0 c 0.911,-0.607 3.188,-4.327 3.416,-6.073 v 0 c 0.228,-1.746 -2.353,-2.884 -2.505,-6.756 v 0 c -0.152,-3.872 7.06,-8.124 7.288,-9.793 v 0 c 0.228,-1.671 1.518,-3.796 2.733,-6.985 v 0 c 1.214,-3.188 5.39,-7.212 6.301,-7.819 v 0 c 0.911,-0.607 0.455,-1.594 0.455,-3.644 v 0 c 0,-2.05 1.063,-5.617 2.354,-8.047 v 0 c 1.29,-2.429 1.063,-2.733 0.151,-2.353 v 0 c -0.911,0.379 -4.706,4.479 -6.073,5.921 v 0 c -1.366,1.442 -6.149,9.49 -7.06,11.008 v 0 c -0.911,1.518 -2.429,7.363 -3.188,9.793 v 0 c -0.759,2.429 -4.1,5.769 -3.796,4.935 v 0 c 0.304,-0.835 0.531,-4.327 0.987,-5.315 v 0 c 0.455,-0.987 0.455,-6.073 -1.063,-6.833 v 0 c -1.519,-0.758 -1.746,0.077 -4.023,2.051 v 0 c -2.278,1.973 -1.974,4.63 -2.809,7.211 v 0 c -0.835,2.582 0.531,7.364 -0.304,6.378 v 0 C 2.029,358.681 0.36,355.037 0.056,352.486 v 0 C 0.019,352.179 0.002,351.869 0,351.558 v 0 -0.1 c 0.013,-2.248 0.857,-4.548 1.624,-6.061 v 0 c 0.886,-1.746 0.558,-6.301 0.05,-13.285 v 0 c -0.508,-6.985 3.013,-11.008 5.138,-12.754 v 0 c 2.126,-1.747 6.377,-2.961 7.137,-4.327 v 0 c 0.759,-1.368 -0.304,-2.43 -1.367,-3.417 v 0 c -0.69,-0.641 -1.923,-0.514 -3.451,-0.388 v 0 c -0.826,0.069 -1.738,0.137 -2.698,0.085 v 0 C 3.7,311.159 2.789,309.336 3.169,309.488 v 0 c 0.379,0.153 2.126,0.304 3.264,0.38 v 0 c 1.139,0.076 1.139,-1.595 4.1,-1.898 v 0 c 2.96,-0.303 1.29,-2.353 -0.911,-2.961 v 0 c -2.202,-0.607 -0.38,-2.732 -1.443,-3.188 v 0 C 7.116,301.366 5.37,300.606 5.295,296.734 v 0 c -0.077,-3.871 4.402,-5.01 5.541,-5.617 v 0 c 1.139,-0.608 2.961,-4.1 2.429,-7.667 v 0 c -0.531,-3.569 6.569,-3.846 10.061,-3.315 v 0 c 3.492,0.532 2.617,-2.38 1.858,-2.455 v 0 c -0.759,-0.076 -1.822,-2.657 -4.175,-3.112 v 0 c -2.354,-0.456 -4.48,-1.899 -5.846,-3.341 v 0 c -1.366,-1.442 -2.505,-0.835 -4.327,-0.759 v 0 c -1.822,0.076 -5.01,1.898 -6.376,2.847 v 0 c -1.368,0.948 -2.582,4.213 -2.734,3.226 v 0 c -0.152,-0.987 -0.075,-1.063 1.671,-6.301 v 0 c 1.746,-5.238 4.858,-3.264 6.3,-6.528 v 0 c 1.442,-3.265 4.024,-3.797 6.074,-5.315 v 0 c 2.049,-1.518 2.961,-3.947 0.531,-3.947 v 0 c -2.429,0 -1.594,-1.898 -5.542,-1.366 v 0 c -3.948,0.531 -5.086,3.035 -5.01,2.277 v 0 c 0.076,-0.759 0.759,-2.429 2.96,-4.1 v 0 c 1.279,-0.97 2.046,-0.839 2.895,-0.707 v 0 c 0.613,0.095 1.269,0.19 2.192,-0.128 v 0 c 1.67,-1.366 3.644,-2.126 6.529,-2.201 v 0 c 2.884,-0.076 3.264,0.379 7.516,1.214 v 0 c 4.25,0.836 7.439,0.153 11.159,0.153 v 0 c 3.719,0 9.261,-0.532 11.539,-1.443 v 0 c 2.277,-0.911 1.898,-3.948 1.822,-5.01 v 0 c -0.076,-1.063 -1.443,-1.595 -2.581,-1.595 v 0 c -1.139,0 -3.644,-1.291 -6.301,-1.594 v 0 c -2.657,-0.303 -4.935,0.759 -9.414,2.353 v 0 c -4.479,1.594 -5.694,6.529 -5.314,2.961 v 0 c 0.379,-3.568 3.872,-6.073 4.1,-6.908 v 0 c 0.227,-0.835 0.835,-1.595 3.416,-2.733 v 0 c 2.58,-1.139 1.822,-3.037 0.987,-3.34 v 0 c -0.836,-0.304 -0.683,-2.43 1.442,-4.252 v 0 c 1.62,-1.388 3.724,-1.366 5.139,-1.344 v 0 c 0.441,0.007 0.816,0.013 1.087,-0.022 v 0 c 1.138,-0.152 1.593,-0.684 1.593,-0.684 v 0 c -0.455,-1.67 0,-9.489 0.532,-8.047 v 0 c 0.531,1.443 0.152,1.746 3.416,2.429 v 0 c 1.739,0.364 3.543,-0.673 5.392,-1.71 v 0 c 1.621,-0.909 3.277,-1.818 4.953,-1.782 v 0 c 3.59,0.077 5.218,5.239 20.781,5.542 v 0 c 15.562,0.304 17.081,-5.997 17.232,-8.578 v 0 c 0.152,-2.582 -0.911,-5.162 -3.72,-5.618 v 0 c -2.809,-0.456 -4.555,3.189 -8.654,3.264 v 0 c -4.1,0.077 -2.202,-1.745 -7.516,-3.492 v 0 c -5.314,-1.746 -7.895,-2.506 -7.287,-4.099 v 0 c 8.122,3.113 13.74,0.379 16.473,-2.657 v 0 c 2.733,-3.037 6.909,-5.163 7.895,-6.756 v 0 c 4.176,-7.972 7.288,-7.592 13.134,-7.44 v 0 c 5.845,0.151 9.869,1.214 9.337,0.38 v 0 c -0.531,-0.835 -0.455,-2.582 1.443,-3.189 v 0 c 1.897,-0.607 3.567,-1.67 3.872,-2.961 v 0 c 0.303,-1.29 -0.988,-3.264 -3.223,-3.719 v 0 c -2.236,-0.456 -3.458,2.276 -7.178,2.504 v 0 c -3.72,0.228 -5.997,-2.96 -7.06,-4.175 v 0 c -1.063,-1.214 -2.28,-5.187 0.453,-4.428 v 0 c 2.733,0.76 6.986,0.101 7.214,-2.025 v 0 c 0.227,-2.126 -2.808,-1.822 -0.531,-5.314 v 0 c 2.278,-3.492 5.39,-3.492 7.102,-3.492 v 0 c 1.712,0 4.817,-2.581 5.955,-5.086 v 0 c 1.139,-2.505 4.099,-6.453 9.49,-6.453 v 0 c 5.39,0 8.502,5.314 10.704,5.922 v 0 c 2.202,0.607 4.744,-1.727 3.283,-2.297 v 0 c -3.48,-1.356 -0.456,-2.429 1.974,-1.366 v 0 c 2.429,1.063 5.143,-0.285 5.675,-1.272 v 0 c 0.531,-0.987 0.607,-3.72 6.073,-3.947 v 0 c 5.465,-0.228 8.502,5.921 13.513,5.921 v 0 c 2.581,0.227 5.086,-0.608 6.757,-1.519 v 0 c 1.669,-0.91 5.769,-5.997 17.536,-5.997 v 0 c 11.767,0 11.615,6.377 21.256,7.364 v 0 c 3.644,0.607 4.175,-0.531 9.869,-3.948 v 0 c 5.694,-3.416 8.958,-1.594 9.642,-0.607 v 0 c 0.683,0.987 -0.077,4.631 4.25,4.061 v 0 c 5.313,-0.699 6.833,-0.721 6.681,-0.037 v 0 c -0.151,0.683 -2.429,3.036 -1.974,3.112 v 0 c 0.456,0.076 4.707,-0.151 5.846,-0.987 v 0 c 1.138,-0.835 4.403,-4.327 9.641,-4.327 v 0 c 5.238,0 6.452,3.948 9.034,7.819 v 0 c 2.581,3.872 5.845,3.568 10.324,4.403 v 0 c 4.48,0.835 1.974,5.466 1.291,8.275 v 0 c -0.683,2.809 5.238,1.67 7.592,1.518 v 0 c 2.353,-0.151 1.973,1.443 0.987,3.493 v 0 c -0.987,2.049 -5.163,5.01 -7.668,5.541 v 0 c -2.505,0.531 -5.618,-1.594 -7.364,-1.821 v 0 c -1.746,-0.228 -3.112,0.835 -3.264,3.264 v 0 c -0.151,2.429 3.644,2.126 4.631,3.112 v 0 c 0.987,0.987 0.683,3.037 0.683,3.037 v 0 c 7.06,-1.822 13.893,-0.759 17.46,0.38 v 0 c 3.569,1.138 2.961,2.504 3.796,5.162 v 0 c 0.836,2.657 6.453,5.693 7.895,7.136 v 0 c 1.443,1.442 6.53,4.478 9.034,4.555 v 0 c 2.506,0.076 5.618,-0.152 8.047,-0.987 v 0 c 2.429,-0.836 1.974,-0.228 0.683,1.063 v 0 c -1.29,1.29 -4.63,2.049 -7.591,3.112 v 0 c -2.96,1.063 -3.112,3.492 -7.537,3.492 v 0 c -4.424,0 -5.748,-2.96 -5.748,-2.96 v 0 c 0,0 -6.453,-1.291 -6.453,5.238 v 0 c 0,6.528 7.288,7.288 10.173,7.971 v 0 c 1.69,0.4 4.241,0.357 7.362,0.314 v 0 c 2.205,-0.03 4.693,-0.06 7.365,0.066 v 0 c 6.453,0.303 10.628,-5.695 13.893,-5.77 v 0 c 3.264,-0.076 6.68,3.492 8.806,4.403 v 0 c 2.126,0.911 3.72,-1.822 4.403,-2.96 v 0 c 0.455,1.29 0.304,4.175 -0.379,6.452 v 0 c -0.684,2.278 4.555,2.278 7.288,2.885 v 0 c 2.733,0.608 2.656,3.037 2.125,5.086 v 0 c -0.531,2.05 0.38,1.974 2.809,2.885 v 0 c 2.429,0.911 2.505,3.416 3.795,4.859 v 0 c 1.292,1.442 2.431,3.947 1.14,4.859 v 0 c -3.113,-3.113 -10.022,-4.632 -13.817,-4.632 v 0 c -3.796,0 -8.654,0.304 -8.654,4.707 v 0 c 0,4.403 8.957,4.175 13.816,4.555 v 0 c 4.859,0.38 9.262,-0.075 15.639,-1.138 v 0 c 6.376,-1.063 6.149,0 8.199,1.214 v 0 c 1.182,0.7 1.303,0.643 1.821,0.586 v 0 c 0.379,-0.042 0.972,-0.084 2.354,0.173 v 0 c 3.264,0.607 4.479,4.1 4.479,4.1 v 0 c -1.746,-1.974 -4.327,-1.215 -5.997,-1.595 v 0 c -0.782,-0.177 -1.081,0.127 -1.373,0.43 v 0 c -0.332,0.347 -0.654,0.693 -1.664,0.33 v 0 c -1.898,-0.683 -2.429,2.96 -1.67,3.036 v 0 c 0.759,0.076 0.304,2.126 2.429,2.581 v 0 c 2.126,0.456 3.644,3.189 4.099,4.1 v 0 c 0.457,0.911 2.81,1.822 5.087,4.023 v 0 c 2.278,2.201 3.948,9.337 2.809,7.364 v 0 c -1.139,-1.974 -6.301,-4.631 -9.869,-5.086 v 0 c -3.568,-0.456 -3.265,3.34 -6.074,4.098 v 0 c -2.809,0.76 -4.023,1.899 -5.921,2.734 v 0 c -1.898,0.835 -1.897,1.746 -1.366,2.277 v 0 c 0.532,0.532 1.518,1.064 6.984,1.519 v 0 c 5.466,0.455 4.403,0.986 5.086,6.224 v 0 c 0.684,5.239 3.037,2.886 6.605,6.302 v 0 c 3.568,3.416 1.594,6.604 0.683,7.743 v 0 c -0.911,1.139 -2.277,0 -2.126,2.05 v 0 c 0.152,2.049 -0.607,1.594 -2.732,2.961 v 0 c -2.126,1.366 -0.304,2.277 0.759,2.527 v 0 c 1.063,0.25 1.822,0.509 2.733,1.116 v 0 c 0.911,0.608 2.429,0.683 4.631,1.063 v 0 c -1.822,1.367 -5.998,1.063 -8.123,0.988 v 0 c -2.126,-0.076 -4.935,4.554 1.062,6.528 v 0 c 7.192,2.367 8.654,9.49 8.731,12.602 v 0 c 0.076,3.112 -0.152,6.908 -0.76,9.565 v 0 c -0.606,2.658 0.38,5.467 1.063,6.985 v 0 c 0.683,1.517 0.988,4.555 0.911,6.529 v 0 c -0.076,1.973 -1.291,4.023 -3.036,5.996 v 0 c 0.607,-5.618 -0.076,-8.198 -0.911,-11.311 v 0 c -0.836,-3.112 -3.416,-4.175 -5.314,-4.479 v 0 c -1.898,-0.303 -1.823,5.01 -1.67,7.365 v 0 c 0.152,2.352 1.138,3.87 0.835,4.933 v 0 c -0.76,-1.138 -3.644,-3.416 -4.555,-8.122 v 0 c -0.911,-4.707 -3.264,-7.668 -3.569,-9.262 v 0 c -0.303,-1.594 -6.224,-8.047 -9.033,-11.539 v 0 c -2.809,-3.492 -3.856,-2.808 -3.341,-2.05 v 0 c 0.646,0.949 -0.182,1.433 1.215,3.188 v 0 c 1.936,2.429 1.746,7.44 2.202,9.718 v 0 c 1.138,0.986 6.908,7.971 7.971,10.173 v 0 c 1.063,2.201 0.683,6.225 2.809,7.439 v 0 c 2.125,1.215 3.415,2.961 4.858,5.693 v 0 c 1.443,2.734 0.077,5.39 -0.835,6.53 v 0 c -0.911,1.138 -0.683,3.188 0.152,4.098 v 0 c 0.835,0.912 2.126,3.037 2.429,3.797 v 0 c 0.304,0.759 2.733,2.505 4.252,3.795 v 0 c 1.518,1.291 2.505,1.367 2.505,1.367 v 0 c 0,0 -1.519,0.531 -2.505,0.835 v 0 c -0.988,0.304 -2.885,0.987 -3.492,-1.063 v 0 c -0.608,-2.05 -1.14,-0.835 -2.354,-0.532 v 0 c -1.215,0.305 -3.189,-1.897 -3.568,-3.492 v 0 c -0.379,-1.594 0,-5.693 -2.125,-4.707 v 0 c -2.126,0.988 -1.14,6.302 -0.532,8.807 v 0 c 0.607,2.506 -0.608,3.872 -1.594,5.01 v 0 c -0.987,1.14 -1.139,2.961 -2.126,4.555 v 0 c -0.987,1.595 -2.505,1.974 -4.479,4.707 v 0 c -1.974,2.733 -0.228,7.061 -0.228,7.061 v 0 c 0,0 -2.429,-3.189 -2.581,-6.757 M 194.948,222.052 c 0,0 2.928,0 3.919,3.987 v 0 h 1.765 1.767 c 0.991,-3.987 3.919,-3.987 3.919,-3.987 v 0 L 200.6,192.275 Z m -126.711,104.584 4.306,-5.777 c 31.591,34.525 77.276,56.218 128.089,56.218 v 0 c 50.652,0 96.207,-21.555 127.786,-55.886 v 0 l 4.646,5.406 c -32.856,35.356 -80.024,57.517 -132.432,57.517 v 0 c -52.387,0 -99.54,-22.145 -132.395,-57.478 m 305,-123.207 C 371.837,124.938 316.785,60.206 242.773,41.938 v 0 c 0.592,-9.655 -3.071,-14.598 -2.75,-14.532 v 0 c 85.882,17.757 152.15,91.183 158.893,164.034 v 0 c -11.691,-25.356 -28.177,-42.498 -28.177,-42.498 v 0 c 6.253,18.049 9.646,37.41 9.646,57.553 v 0 z M 31.068,147.404 c 0,0 -13.399,10.937 -30.025,42.593 v 0 C 15.846,95.255 86.22,56.31 117.536,42.076 v 0 c -0.57,6.946 3.04,14.162 3.04,14.162 v 0 C 64.129,86.221 29.526,138.543 28.047,202.524 v 0 l -7.163,2.959 c 0.114,-20.352 3.693,-39.895 10.184,-58.079 m 167.659,-8.08 c -10.41,-0.441 -12.242,-1.252 -12.242,-1.252 v 0 c 2.278,0.113 2.278,-1.082 3.758,-1.082 v 0 c 1.48,0 3.702,-1.253 5.922,-2.05 v 0 c 2.22,-0.798 1.309,-4.726 -0.228,-5.125 v 0 c -1.537,-0.398 -4.498,-2.391 -4.669,-4.668 v 0 c -0.171,-2.278 1.936,-4.839 2.391,-7.801 v 0 c 0.456,-2.961 -4.042,-6.319 -13.892,-10.533 v 0 c -9.85,-4.213 -13.323,-7.573 -15.885,-9.679 v 0 c -2.562,-2.107 -1.823,-6.776 -2.22,-8.256 v 0 c -0.399,-1.48 -3.872,-2.392 -7.345,-2.733 v 0 c -1.567,-0.154 -2.648,0.386 -3.356,0.927 v 0 c -0.862,0.659 -1.174,1.317 -1.143,0.724 v 0 c 0.057,-1.082 0.627,-3.075 1.709,-3.814 v 0 c 1.081,-0.741 3.586,-0.342 3.586,-0.342 v 0 c 0,0 0.058,-0.911 -2.562,-1.765 v 0 c -1.381,-0.451 -2.525,-0.284 -3.213,-0.117 v 0 c -0.618,0.149 -0.871,0.299 -0.601,0.003 v 0 c 0.568,-0.626 2.163,-1.765 3.529,-1.765 v 0 c 1.367,0 3.132,-1.025 5.409,-1.025 v 0 c 2.278,0 2.847,2.733 2.734,1.025 v 0 c -0.115,-1.708 -1.082,-2.505 -2.563,-3.303 v 0 c -1.48,-0.797 -6.377,-4.895 -7.572,-7.515 v 0 c -1.196,-2.619 1.025,-4.84 -0.114,-5.352 v 0 c -1.139,-0.513 -5.978,-1.595 -7.515,-3.644 v 0 c -1.538,-2.05 -3.36,-3.36 -5.068,-3.587 v 0 c -1.709,-0.228 -3.416,0.398 -4.954,2.05 v 0 c -1.537,1.651 -1.594,3.131 -1.822,1.822 v 0 c -0.227,-1.31 0.228,-4.1 0.74,-6.036 v 0 c 0.513,-1.936 3.189,-2.96 1.082,-3.245 v 0 c -0.768,-0.105 -1.747,0.147 -2.618,0.398 v 0 c -1.52,0.44 -2.712,0.879 -1.879,-0.568 v 0 c 3.074,-6.491 3.53,-4.841 5.807,-5.353 v 0 c 2.277,-0.512 6.263,-0.227 6.263,-0.227 v 0 c 0.797,-3.189 2.733,-6.263 2.733,-7.402 v 0 c 0,-1.139 -0.113,-1.595 1.196,-4.783 v 0 c 1.31,-3.188 2.049,-3.474 1.651,-8.199 v 0 c -0.399,-4.725 4.726,-4.953 6.889,-4.84 v 0 c 2.164,0.115 3.131,-2.334 4.384,-6.263 v 0 c 1.253,-3.928 4.384,-6.034 6.605,-6.034 v 0 c 2.22,0 2.79,3.017 4.783,3.074 v 0 c 1.992,0.057 1.29,-4.935 5.238,-7.402 v 0 C 176.236,1.986 176.332,0.002 180.257,0 v 0 h 0.022 c 2.734,0.004 2.221,0.342 3.644,1.139 v 0 c 1.424,0.797 2.847,3.871 2.562,3.416 v 0 C 186.201,4.1 184.777,4.043 184.208,3.644 v 0 c -0.569,-0.399 -2.278,0.057 -3.929,0.683 v 0 c -1.651,0.627 -3.359,4.271 -4.042,6.149 v 0 c -0.683,1.879 0.399,3.872 4.726,1.48 v 0 c 4.327,-2.391 11.083,-3.093 13.513,-3.093 v 0 c 2.429,0 9.109,0.38 11.538,0.835 v 0 c 2.43,0.456 11.16,4.251 14.349,7.288 v 0 c 3.188,3.036 5.162,2.885 8.047,4.859 v 0 c 1.803,1.234 3.458,5.992 5.557,12.029 v 0 c 1.427,4.102 0.544,8.238 -0.737,13.042 v 0 c -3.416,12.811 -8.996,13.437 -8.996,13.437 v 0 c 4.498,-3.872 5.58,-7.687 5.296,-7.744 v 0 c -0.285,-0.056 -2.961,0.172 -1.253,-0.91 v 0 c 1.708,-1.082 2.22,-2.335 2.368,-4.043 v 0 c 0.147,-1.708 -1.115,-2.107 -1.856,-2.79 v 0 c -0.74,-0.683 -0.284,-1.651 -0.569,-3.246 v 0 c -0.285,-1.593 -1.367,-0.284 -1.936,0.057 v 0 c -0.569,0.342 -1.082,0.912 -2.334,1.082 v 0 c -1.253,0.171 -1.993,0.058 -1.936,-0.797 v 0 c 0.056,-0.854 1.537,-3.302 2.847,-3.473 v 0 c 1.309,-0.171 1.879,-1.423 1.708,-2.449 v 0 c -0.171,-1.024 -2.676,-3.928 -3.758,-5.977 v 0 c -1.082,-2.051 -4.669,-4.897 -6.491,-5.466 v 0 c -1.822,-0.57 -2.334,1.024 -2.733,1.106 v 0 c -0.399,0.082 -1.082,1.683 -1.48,1.912 v 0 c -0.398,0.227 -1.252,0.853 -1.879,0.967 v 0 c -0.626,0.115 -1.309,-1.025 -1.708,-1.48 v 0 c -0.399,-0.456 -1.253,0.74 -1.537,1.196 v 0 c -0.285,0.455 -0.342,0.854 -0.342,1.765 v 0 c 0,0.91 -0.74,2.562 -1.651,3.928 v 0 c -0.911,1.366 -3.758,3.302 -6.776,3.417 v 0 c -3.017,0.113 -4.042,-0.627 -4.042,-0.627 v 0 c 6.832,-4.46 3.037,-10.837 -1.48,-11.064 v 0 c -4.844,0 -7.174,3.663 -7.744,4.687 v 0 c -0.57,1.025 -1.992,1.025 -3.018,1.025 v 0 c -1.025,0 -2.619,1.196 -4.327,3.36 v 0 c -1.708,2.163 -1.708,3.358 -1.936,4.952 v 0 c -0.227,1.595 0,4.385 0,4.954 v 0 c 0,0.57 1.082,3.531 1.481,6.321 v 0 c 0.399,2.789 -0.399,3.814 -0.512,4.041 v 0 c -0.115,0.228 -0.798,0.969 0.284,1.481 v 0 c 1.082,0.512 5.409,5.58 5.409,5.58 v 0 c 4.668,-11.786 7.345,-12.697 13.038,-14.861 v 0 c 5.694,-2.163 11.616,-1.765 14.975,0 v 0 c 3.359,1.765 4.441,5.352 3.928,5.011 v 0 c -0.512,-0.342 -1.423,-0.684 -1.765,-0.684 v 0 c -0.341,0 -0.284,1.652 -0.284,2.107 v 0 c 0,0.456 -0.399,1.594 -0.57,0.342 v 0 c -0.17,-1.252 -1.309,-1.879 -2.676,-2.562 v 0 c -1.366,-0.683 -2.277,0.683 -2.961,0.683 v 0 c -0.683,0 -1.764,0.74 -1.537,3.131 v 0 c 0.228,2.391 -0.569,3.531 -1.309,3.644 v 0 c -0.323,0.05 -0.603,-0.161 -0.891,-0.371 v 0 c -0.373,-0.272 -0.76,-0.544 -1.273,-0.255 v 0 c -0.911,0.513 -0.171,2.107 0.512,2.79 v 0 c 0.684,0.683 1.709,3.132 1.994,4.043 v 0 c 0.284,0.911 0.341,2.22 -0.456,1.878 v 0 c -0.797,-0.341 -2.676,-1.707 -3.587,-2.277 v 0 c -0.911,-0.57 -2.486,0.986 -1.866,6.23 v 0 c 0.558,4.72 1.254,4.282 2.41,3.844 v 0 c 0.487,-0.185 1.057,-0.37 1.734,-0.167 v 0 c 2.277,0.683 1.423,3.758 1.537,7.06 v 0 c 0.113,3.302 3.416,3.587 4.213,3.815 v 0 c 0.797,0.228 5.466,3.359 7.288,4.896 v 0 c 1.822,1.538 8.882,8.825 10.932,8.996 v 0 c 2.05,0.171 2.619,-0.797 3.017,-1.765 v 0 c 0.399,-0.968 -1.65,-3.644 -2.79,-4.953 v 0 c -1.138,-1.31 -3.415,-3.985 -5.75,-5.979 v 0 c -1.511,-1.29 -2.997,-1.267 -3.704,-1.245 v 0 c -0.386,0.011 -0.54,0.023 -0.339,-0.178 v 0 c 0.57,-0.57 1.538,-1.309 3.645,-1.48 v 0 c 2.106,-0.171 3.928,2.278 5.921,3.359 v 0 c 1.992,1.081 4.498,2.904 4.498,2.904 v 0 c 8.028,7.06 9.224,10.647 10.306,12.697 v 0 c 1.081,2.049 -0.456,4.612 -1.025,5.978 v 0 c -0.57,1.366 -1.595,8.825 -2.278,11.559 v 0 c -0.683,2.732 -4.555,8.084 -7.288,10.361 v 0 c -2.733,2.278 -4.671,4.551 -7.686,6.321 v 0 c -1.64,0.962 -2.26,0.875 -3.58,0.786 v 0 c -0.788,-0.052 -1.827,-0.104 -3.48,0.068 v 0 c -4.587,0.474 -5.498,1.57 -12.567,1.57 v 0 c -1.126,0 -2.409,-0.028 -3.888,-0.09 m -18.39,-2.733 c 1.081,-0.057 0.796,-2.221 1.935,-2.449 v 0 c 0.301,-0.059 -0.227,-3.586 0.171,-4.668 v 0 c 0.398,-1.082 0.513,-3.132 -1.082,-6.491 v 0 c -1.594,-3.359 -4.725,-4.214 -1.822,-3.52 v 0 c 2.904,0.693 3.644,3.007 3.815,2.438 v 0 c 0.17,-0.569 1.082,-3.473 1.366,-2.05 v 0 c 0.285,1.424 2.335,2.961 3.417,3.93 v 0 c 1.082,0.967 0.911,2.619 1.48,4.327 v 0 c 0.569,1.707 -0.569,2.277 -1.025,2.732 v 0 c -0.455,0.456 -0.683,2.05 -2.505,4.043 v 0 c -1.417,1.55 -4.109,1.722 -5.235,1.722 v 0 c -0.322,0 -0.515,-0.014 -0.515,-0.014" /></g></g></g></g></g></svg>