<?xml version="1.0" encoding="UTF-8" standalone="no"?>
<svg
   xmlns:dc="http://purl.org/dc/elements/1.1/"
   xmlns:cc="http://creativecommons.org/ns#"
   xmlns:rdf="http://www.w3.org/1999/02/22-rdf-syntax-ns#"
   xmlns:svg="http://www.w3.org/2000/svg"
   xmlns="http://www.w3.org/2000/svg"
   viewBox="0 0 527.42133 556.67334"
   height="556.67334"
   width="527.42133"
   xml:space="preserve"
   id="svg2"
   version="1.1"><metadata
     id="metadata8"><rdf:RDF><cc:Work
         rdf:about=""><dc:format>image/svg+xml</dc:format><dc:type
           rdf:resource="http://purl.org/dc/dcmitype/StillImage" /></cc:Work></rdf:RDF></metadata><defs
     id="defs6"><clipPath
       id="clipPath18"
       clipPathUnits="userSpaceOnUse"><path
         id="path16"
         d="M 368.223,402.01 C 346.198,391.073 311.44,373.618 309.058,372.162 v 0 c -2.734,-1.671 -7.671,-2.051 -3.418,2.202 v 0 c 4.253,4.253 9.722,11.848 36.76,22.027 v 0 c -10.026,-1.52 -28.253,-5.925 -40.861,-19.9 v 0 C 286.044,360.39 284.374,326.059 260.677,295.983 v 0 c -20.304,-4.153 -41.622,-17.216 -41.622,-27.494 v 0 c 0,-6.228 2.279,-9.469 9.165,-21.823 v 0 c 2.432,-4.363 7.354,-11.773 11.938,-16.609 v 0 c 4.961,-5.234 8.405,-5.569 11.739,-4.298 v 0 c 1.496,0.57 2.654,1.361 5.793,2.881 v 0 c 3.139,1.519 1.442,3.069 0.328,4.683 v 0 c -1.113,1.615 -8.328,11.924 -10.351,15.57 v 0 c -2.024,3.646 1.111,2.025 2.428,0.709 v 0 c 1.315,-1.316 13.671,-13.063 16,-15.696 v 0 c 2.329,-2.634 5.468,-1.823 7.19,-1.018 v 0 c 1.722,0.804 7.493,3.954 10.127,6.183 v 0 c 2.632,2.227 1.316,2.835 0.202,3.949 v 0 c -1.114,1.114 -14.38,11.646 -16.607,13.772 v 0 c -2.229,2.126 -0.102,2.506 2.632,0.684 v 0 c 1.317,-0.71 17.418,-10.405 20.254,-11.925 v 0 c 2.836,-1.519 4.861,-1.114 6.278,0 v 0 c 1.418,1.115 6.785,4.557 8.405,6.381 v 0 c 1.621,1.822 0,2.329 -1.417,3.139 v 0 c -1.418,0.81 -23.089,12.557 -24.912,13.671 v 0 c -1.823,1.114 0.506,1.012 2.026,0.405 v 0 c 1.518,-0.608 19.442,-5.773 25.317,-7.494 v 0 c 5.873,-1.721 7.392,-1.418 8.202,-0.608 v 0 c 0.81,0.811 7.19,8.507 8.101,10.633 v 0 c 0.912,2.127 -0.101,2.532 -2.227,3.241 v 0 c -2.127,0.709 -23.115,5.266 -26.862,6.177 v 0 c -3.747,0.912 1.874,1.19 2.886,1.292 v 0 c 1.013,0.101 20.33,1.037 25.798,1.24 v 0 c 5.468,0.202 5.468,0.811 6.178,1.924 v 0 c 0.709,1.114 8.202,12.76 9.012,15.292 v 0 c 0.811,2.532 -0.607,3.037 -2.227,2.835 v 0 c -1.62,-0.203 -31.191,-3.24 -34.736,-3.443 v 0 c -3.544,-0.202 -0.91,1.823 0.305,2.025 v 0 c 1.214,0.203 23.696,4.406 32.202,6.38 v 0 c 8.507,1.975 9.267,3.545 12.001,6.431 v 0 c 2.734,2.886 10.634,13.873 13.063,19.342 v 0 c 2.513,5.654 0.842,5.96 -0.053,5.628 v 0 c -9.061,-3.368 -42.997,-14.98 -46.592,-16.362 v 0 c -3.949,-1.52 -4.405,0.607 -1.265,1.924 v 0 c 3.139,1.317 44.713,18.702 44.713,18.702 v 0 c 6.446,2.741 10.742,5.957 13.881,12.336 v 0 c 3.521,7.155 4.986,9.617 5.773,13.064 v 0 c 0.353,1.547 -1.322,1.912 -2.194,1.539 v 0 c -13.488,-5.759 -50.135,-21.403 -54.415,-23.211 v 0 c -4.557,-1.924 -3.342,0.405 -0.912,1.722 v 0 c 2.431,1.317 27.039,13.064 53.833,27.899 v 0 c 8.174,4.526 10.64,7.233 15.738,14.734 v 0 c 9.773,14.381 9.773,25.116 9.773,25.116 v 0 c 0,0 -5.317,-4.557 -27.343,-15.495 M 0,417.505 c 0,0 0,-10.735 9.773,-25.116 v 0 c 5.099,-7.501 7.565,-10.208 15.738,-14.734 v 0 C 52.305,362.82 76.913,351.073 79.344,349.756 v 0 c 2.43,-1.317 3.645,-3.646 -0.912,-1.722 v 0 c -4.28,1.808 -40.927,17.452 -54.415,23.211 v 0 c -0.873,0.373 -2.547,0.008 -2.194,-1.539 v 0 c 0.787,-3.447 2.252,-5.909 5.773,-13.064 v 0 c 3.139,-6.379 7.436,-9.595 13.881,-12.336 v 0 c 0,0 41.574,-17.385 44.713,-18.702 v 0 c 3.14,-1.317 2.684,-3.444 -1.265,-1.924 v 0 c -3.595,1.382 -37.531,12.994 -46.592,16.362 v 0 c -0.895,0.332 -2.566,0.026 -0.053,-5.628 v 0 c 2.43,-5.469 10.329,-16.456 13.063,-19.342 v 0 c 2.734,-2.886 3.494,-4.456 12,-6.431 v 0 c 8.507,-1.974 30.989,-6.177 32.204,-6.38 v 0 c 1.215,-0.202 3.848,-2.227 0.303,-2.025 v 0 c -3.544,0.203 -33.115,3.24 -34.735,3.443 v 0 c -1.62,0.202 -3.038,-0.303 -2.227,-2.835 v 0 c 0.81,-2.532 8.303,-14.178 9.012,-15.292 v 0 c 0.709,-1.113 0.709,-1.722 6.178,-1.924 v 0 c 5.469,-0.203 24.785,-1.139 25.798,-1.24 v 0 c 1.012,-0.102 6.633,-0.38 2.886,-1.292 v 0 c -3.747,-0.911 -24.735,-5.468 -26.861,-6.177 v 0 c -2.127,-0.709 -3.14,-1.114 -2.228,-3.241 v 0 c 0.911,-2.126 7.291,-9.822 8.101,-10.633 v 0 c 0.81,-0.81 2.329,-1.113 8.203,0.608 v 0 c 5.873,1.721 23.797,6.886 25.317,7.494 v 0 c 1.519,0.607 3.848,0.709 2.026,-0.405 v 0 c -1.824,-1.114 -23.495,-12.861 -24.912,-13.671 v 0 c -1.418,-0.81 -3.039,-1.317 -1.418,-3.139 v 0 c 1.62,-1.824 6.987,-5.266 8.405,-6.381 v 0 c 1.418,-1.114 3.443,-1.519 6.279,0 v 0 c 2.834,1.52 18.936,11.215 20.253,11.925 v 0 c 2.734,1.822 4.861,1.442 2.634,-0.684 v 0 c -2.229,-2.126 -15.495,-12.658 -16.609,-13.772 v 0 c -1.114,-1.114 -2.43,-1.722 0.202,-3.949 v 0 c 2.634,-2.229 8.406,-5.379 10.127,-6.183 v 0 c 1.722,-0.805 4.861,-1.616 7.19,1.018 v 0 c 2.329,2.633 14.684,14.38 16,15.696 v 0 c 1.317,1.316 4.452,2.937 2.429,-0.709 v 0 c -2.024,-3.646 -9.542,-14.563 -10.656,-16.177 v 0 c -1.114,-1.615 -2.81,-3.165 0.329,-4.684 v 0 c 3.139,-1.519 5.436,-2.117 7.595,-2.836 v 0 c 2.052,-0.683 6.031,-0.005 8.406,2.734 v 0 c 6.487,7.481 9.167,11.401 12.913,17.375 v 0 c 3.748,5.975 10.024,14.525 10.024,23.184 v 0 c 0,11.291 -21.318,23.341 -41.622,27.494 v 0 c -23.697,30.076 -25.367,64.407 -40.862,80.508 v 0 c -12.608,13.975 -30.835,18.38 -40.861,19.9 v 0 c 27.038,-10.179 32.507,-17.774 36.76,-22.027 v 0 c 4.254,-4.253 -0.684,-3.873 -3.418,-2.202 v 0 c -2.382,1.456 -37.139,18.911 -59.166,29.848 v 0 C 5.316,412.948 0,417.505 0,417.505 Z m 117.268,-69.42 4.602,-9.679 76.565,29.427 75.04,-28.305 4.152,10.431 -79.192,29.722 z m 66.483,-29.418 14.684,-27.747 12.76,27.747 -12.76,34.431 z m 31.596,-1.114 -14.684,-28.659 28.659,14.482 8.709,23.19 z m -48.811,-13.772 28.861,-14.887 -16.811,28.254 -20.962,9.418 z M 328.058,267.432 V 155.78 l 4.078,-7.106 15.821,17.587 v 133.172 z m -129.623,16.095 c 0,0 -12.355,6.278 -17.722,9.317 v 0 c 0,0 2.363,-6.419 3.848,-12.254 v 0 c 1.965,-7.719 2.328,-13.016 -2.025,-22.077 v 0 c -6.659,-13.858 -13.671,-29.519 -13.671,-38.481 v 0 c 0,-4.76 2.13,-9.725 7.595,-15.494 v 0 c 10.937,-11.545 21.975,-24.102 21.975,-24.102 v 0 c 0,0 11.038,12.557 21.975,24.102 v 0 c 5.466,5.769 7.595,10.734 7.595,15.494 v 0 c 0,8.962 -7.012,24.623 -13.671,38.481 v 0 c -4.353,9.061 -3.99,14.358 -2.025,22.077 v 0 c 1.485,5.835 3.848,12.254 3.848,12.254 v 0 c -5.367,-3.039 -17.722,-9.317 -17.722,-9.317 m -4.469,-6 c 0,0 1.671,2.012 4.469,2.012 v 0 c 2.798,0 4.468,-2.012 4.468,-2.012 v 0 l -4.468,-7.71 z M 52.71,161.395 l 53.811,-59.561 8.06,4.561 -41.972,45.737 V 258.918 L 52.71,290.92 Z m 145.725,10.332 -7.19,7.595 c 9.114,-33.571 31.292,-46.33 54.09,-46.33 v 0 c 22.798,0 22.735,8.069 49.811,8.069 v 0 c 43.444,0 37.823,-39.513 37.823,-39.513 v 0 c 0,0 1.52,5.62 1.52,16.102 v 0 c 0,23.697 -19.444,62.786 -54.837,62.786 v 0 c -13.367,0 -28.76,-8.709 -41.621,-8.709 v 0 c -7.392,0 -12.558,1.721 -17.823,4.962 v 0 c -5.266,3.241 -8.304,9.823 -8.304,9.823 v 0 z m 97.926,-36.608 C 279.855,101.245 252.107,78.053 222.739,78.053 v 0 c -29.368,0 -44.963,26.331 -83.849,26.331 v 0 c -47.597,0 -44.761,-43.951 -44.761,-55.09 v 0 c 0,-11.14 -9.722,-15.19 -13.165,-15.19 v 0 c -3.443,0 -7.697,2.835 -7.697,2.835 v 0 c 0,0 2.431,-7.494 11.95,-7.494 v 0 c 16.811,0 19.241,19.039 19.241,19.039 v 0 c 2.026,-6.482 6.684,-9.924 6.684,-9.924 v 0 c -4.051,17.62 -1.62,46.583 28.558,46.583 v 0 c 44.355,0 56.912,-54.078 112.407,-54.078 v 0 c 36.659,0 75.546,39.04 75.546,72.61 v 0 c 0,29.795 -24.652,31.471 -30.195,31.471 v 0 c -0.702,0 -1.097,-0.027 -1.097,-0.027 M 128.226,77.81 198.524,0 l 24.707,29.474 -8.425,3.49 -16.46,-17.849 -59.509,64.848 z" /></clipPath><linearGradient
       id="linearGradient30"
       spreadMethod="pad"
       gradientTransform="matrix(0,417.50464,417.50464,0,197.78307,0)"
       gradientUnits="userSpaceOnUse"
       y2="0"
       x2="1"
       y1="0"
       x1="0"><stop
         id="stop24"
         offset="0"
         style="stop-opacity:1;stop-color:#09092b" /><stop
         id="stop26"
         offset="0.5145727"
         style="stop-opacity:1;stop-color:#121146" /><stop
         id="stop28"
         offset="1"
         style="stop-opacity:1;stop-color:#121146" /></linearGradient></defs><g
     transform="matrix(1.3333333,0,0,-1.3333333,0,556.67333)"
     id="g10"><g
       id="g12"><g
         clip-path="url(#clipPath18)"
         id="g14"><g
           id="g20"><g
             id="g22"><path
               id="path32"
               style="fill:url(#linearGradient30);stroke:none"
               d="M 368.223,402.01 C 346.198,391.073 311.44,373.618 309.058,372.162 v 0 c -2.734,-1.671 -7.671,-2.051 -3.418,2.202 v 0 c 4.253,4.253 9.722,11.848 36.76,22.027 v 0 c -10.026,-1.52 -28.253,-5.925 -40.861,-19.9 v 0 C 286.044,360.39 284.374,326.059 260.677,295.983 v 0 c -20.304,-4.153 -41.622,-17.216 -41.622,-27.494 v 0 c 0,-6.228 2.279,-9.469 9.165,-21.823 v 0 c 2.432,-4.363 7.354,-11.773 11.938,-16.609 v 0 c 4.961,-5.234 8.405,-5.569 11.739,-4.298 v 0 c 1.496,0.57 2.654,1.361 5.793,2.881 v 0 c 3.139,1.519 1.442,3.069 0.328,4.683 v 0 c -1.113,1.615 -8.328,11.924 -10.351,15.57 v 0 c -2.024,3.646 1.111,2.025 2.428,0.709 v 0 c 1.315,-1.316 13.671,-13.063 16,-15.696 v 0 c 2.329,-2.634 5.468,-1.823 7.19,-1.018 v 0 c 1.722,0.804 7.493,3.954 10.127,6.183 v 0 c 2.632,2.227 1.316,2.835 0.202,3.949 v 0 c -1.114,1.114 -14.38,11.646 -16.607,13.772 v 0 c -2.229,2.126 -0.102,2.506 2.632,0.684 v 0 c 1.317,-0.71 17.418,-10.405 20.254,-11.925 v 0 c 2.836,-1.519 4.861,-1.114 6.278,0 v 0 c 1.418,1.115 6.785,4.557 8.405,6.381 v 0 c 1.621,1.822 0,2.329 -1.417,3.139 v 0 c -1.418,0.81 -23.089,12.557 -24.912,13.671 v 0 c -1.823,1.114 0.506,1.012 2.026,0.405 v 0 c 1.518,-0.608 19.442,-5.773 25.317,-7.494 v 0 c 5.873,-1.721 7.392,-1.418 8.202,-0.608 v 0 c 0.81,0.811 7.19,8.507 8.101,10.633 v 0 c 0.912,2.127 -0.101,2.532 -2.227,3.241 v 0 c -2.127,0.709 -23.115,5.266 -26.862,6.177 v 0 c -3.747,0.912 1.874,1.19 2.886,1.292 v 0 c 1.013,0.101 20.33,1.037 25.798,1.24 v 0 c 5.468,0.202 5.468,0.811 6.178,1.924 v 0 c 0.709,1.114 8.202,12.76 9.012,15.292 v 0 c 0.811,2.532 -0.607,3.037 -2.227,2.835 v 0 c -1.62,-0.203 -31.191,-3.24 -34.736,-3.443 v 0 c -3.544,-0.202 -0.91,1.823 0.305,2.025 v 0 c 1.214,0.203 23.696,4.406 32.202,6.38 v 0 c 8.507,1.975 9.267,3.545 12.001,6.431 v 0 c 2.734,2.886 10.634,13.873 13.063,19.342 v 0 c 2.513,5.654 0.842,5.96 -0.053,5.628 v 0 c -9.061,-3.368 -42.997,-14.98 -46.592,-16.362 v 0 c -3.949,-1.52 -4.405,0.607 -1.265,1.924 v 0 c 3.139,1.317 44.713,18.702 44.713,18.702 v 0 c 6.446,2.741 10.742,5.957 13.881,12.336 v 0 c 3.521,7.155 4.986,9.617 5.773,13.064 v 0 c 0.353,1.547 -1.322,1.912 -2.194,1.539 v 0 c -13.488,-5.759 -50.135,-21.403 -54.415,-23.211 v 0 c -4.557,-1.924 -3.342,0.405 -0.912,1.722 v 0 c 2.431,1.317 27.039,13.064 53.833,27.899 v 0 c 8.174,4.526 10.64,7.233 15.738,14.734 v 0 c 9.773,14.381 9.773,25.116 9.773,25.116 v 0 c 0,0 -5.317,-4.557 -27.343,-15.495 M 0,417.505 c 0,0 0,-10.735 9.773,-25.116 v 0 c 5.099,-7.501 7.565,-10.208 15.738,-14.734 v 0 C 52.305,362.82 76.913,351.073 79.344,349.756 v 0 c 2.43,-1.317 3.645,-3.646 -0.912,-1.722 v 0 c -4.28,1.808 -40.927,17.452 -54.415,23.211 v 0 c -0.873,0.373 -2.547,0.008 -2.194,-1.539 v 0 c 0.787,-3.447 2.252,-5.909 5.773,-13.064 v 0 c 3.139,-6.379 7.436,-9.595 13.881,-12.336 v 0 c 0,0 41.574,-17.385 44.713,-18.702 v 0 c 3.14,-1.317 2.684,-3.444 -1.265,-1.924 v 0 c -3.595,1.382 -37.531,12.994 -46.592,16.362 v 0 c -0.895,0.332 -2.566,0.026 -0.053,-5.628 v 0 c 2.43,-5.469 10.329,-16.456 13.063,-19.342 v 0 c 2.734,-2.886 3.494,-4.456 12,-6.431 v 0 c 8.507,-1.974 30.989,-6.177 32.204,-6.38 v 0 c 1.215,-0.202 3.848,-2.227 0.303,-2.025 v 0 c -3.544,0.203 -33.115,3.24 -34.735,3.443 v 0 c -1.62,0.202 -3.038,-0.303 -2.227,-2.835 v 0 c 0.81,-2.532 8.303,-14.178 9.012,-15.292 v 0 c 0.709,-1.113 0.709,-1.722 6.178,-1.924 v 0 c 5.469,-0.203 24.785,-1.139 25.798,-1.24 v 0 c 1.012,-0.102 6.633,-0.38 2.886,-1.292 v 0 c -3.747,-0.911 -24.735,-5.468 -26.861,-6.177 v 0 c -2.127,-0.709 -3.14,-1.114 -2.228,-3.241 v 0 c 0.911,-2.126 7.291,-9.822 8.101,-10.633 v 0 c 0.81,-0.81 2.329,-1.113 8.203,0.608 v 0 c 5.873,1.721 23.797,6.886 25.317,7.494 v 0 c 1.519,0.607 3.848,0.709 2.026,-0.405 v 0 c -1.824,-1.114 -23.495,-12.861 -24.912,-13.671 v 0 c -1.418,-0.81 -3.039,-1.317 -1.418,-3.139 v 0 c 1.62,-1.824 6.987,-5.266 8.405,-6.381 v 0 c 1.418,-1.114 3.443,-1.519 6.279,0 v 0 c 2.834,1.52 18.936,11.215 20.253,11.925 v 0 c 2.734,1.822 4.861,1.442 2.634,-0.684 v 0 c -2.229,-2.126 -15.495,-12.658 -16.609,-13.772 v 0 c -1.114,-1.114 -2.43,-1.722 0.202,-3.949 v 0 c 2.634,-2.229 8.406,-5.379 10.127,-6.183 v 0 c 1.722,-0.805 4.861,-1.616 7.19,1.018 v 0 c 2.329,2.633 14.684,14.38 16,15.696 v 0 c 1.317,1.316 4.452,2.937 2.429,-0.709 v 0 c -2.024,-3.646 -9.542,-14.563 -10.656,-16.177 v 0 c -1.114,-1.615 -2.81,-3.165 0.329,-4.684 v 0 c 3.139,-1.519 5.436,-2.117 7.595,-2.836 v 0 c 2.052,-0.683 6.031,-0.005 8.406,2.734 v 0 c 6.487,7.481 9.167,11.401 12.913,17.375 v 0 c 3.748,5.975 10.024,14.525 10.024,23.184 v 0 c 0,11.291 -21.318,23.341 -41.622,27.494 v 0 c -23.697,30.076 -25.367,64.407 -40.862,80.508 v 0 c -12.608,13.975 -30.835,18.38 -40.861,19.9 v 0 c 27.038,-10.179 32.507,-17.774 36.76,-22.027 v 0 c 4.254,-4.253 -0.684,-3.873 -3.418,-2.202 v 0 c -2.382,1.456 -37.139,18.911 -59.166,29.848 v 0 C 5.316,412.948 0,417.505 0,417.505 Z m 117.268,-69.42 4.602,-9.679 76.565,29.427 75.04,-28.305 4.152,10.431 -79.192,29.722 z m 66.483,-29.418 14.684,-27.747 12.76,27.747 -12.76,34.431 z m 31.596,-1.114 -14.684,-28.659 28.659,14.482 8.709,23.19 z m -48.811,-13.772 28.861,-14.887 -16.811,28.254 -20.962,9.418 z M 328.058,267.432 V 155.78 l 4.078,-7.106 15.821,17.587 v 133.172 z m -129.623,16.095 c 0,0 -12.355,6.278 -17.722,9.317 v 0 c 0,0 2.363,-6.419 3.848,-12.254 v 0 c 1.965,-7.719 2.328,-13.016 -2.025,-22.077 v 0 c -6.659,-13.858 -13.671,-29.519 -13.671,-38.481 v 0 c 0,-4.76 2.13,-9.725 7.595,-15.494 v 0 c 10.937,-11.545 21.975,-24.102 21.975,-24.102 v 0 c 0,0 11.038,12.557 21.975,24.102 v 0 c 5.466,5.769 7.595,10.734 7.595,15.494 v 0 c 0,8.962 -7.012,24.623 -13.671,38.481 v 0 c -4.353,9.061 -3.99,14.358 -2.025,22.077 v 0 c 1.485,5.835 3.848,12.254 3.848,12.254 v 0 c -5.367,-3.039 -17.722,-9.317 -17.722,-9.317 m -4.469,-6 c 0,0 1.671,2.012 4.469,2.012 v 0 c 2.798,0 4.468,-2.012 4.468,-2.012 v 0 l -4.468,-7.71 z M 52.71,161.395 l 53.811,-59.561 8.06,4.561 -41.972,45.737 V 258.918 L 52.71,290.92 Z m 145.725,10.332 -7.19,7.595 c 9.114,-33.571 31.292,-46.33 54.09,-46.33 v 0 c 22.798,0 22.735,8.069 49.811,8.069 v 0 c 43.444,0 37.823,-39.513 37.823,-39.513 v 0 c 0,0 1.52,5.62 1.52,16.102 v 0 c 0,23.697 -19.444,62.786 -54.837,62.786 v 0 c -13.367,0 -28.76,-8.709 -41.621,-8.709 v 0 c -7.392,0 -12.558,1.721 -17.823,4.962 v 0 c -5.266,3.241 -8.304,9.823 -8.304,9.823 v 0 z m 97.926,-36.608 C 279.855,101.245 252.107,78.053 222.739,78.053 v 0 c -29.368,0 -44.963,26.331 -83.849,26.331 v 0 c -47.597,0 -44.761,-43.951 -44.761,-55.09 v 0 c 0,-11.14 -9.722,-15.19 -13.165,-15.19 v 0 c -3.443,0 -7.697,2.835 -7.697,2.835 v 0 c 0,0 2.431,-7.494 11.95,-7.494 v 0 c 16.811,0 19.241,19.039 19.241,19.039 v 0 c 2.026,-6.482 6.684,-9.924 6.684,-9.924 v 0 c -4.051,17.62 -1.62,46.583 28.558,46.583 v 0 c 44.355,0 56.912,-54.078 112.407,-54.078 v 0 c 36.659,0 75.546,39.04 75.546,72.61 v 0 c 0,29.795 -24.652,31.471 -30.195,31.471 v 0 c -0.702,0 -1.097,-0.027 -1.097,-0.027 M 128.226,77.81 198.524,0 l 24.707,29.474 -8.425,3.49 -16.46,-17.849 -59.509,64.848 z" /></g></g></g></g></g></svg>