<?xml version="1.0" encoding="UTF-8" standalone="no"?>
<svg
   xmlns:dc="http://purl.org/dc/elements/1.1/"
   xmlns:cc="http://creativecommons.org/ns#"
   xmlns:rdf="http://www.w3.org/1999/02/22-rdf-syntax-ns#"
   xmlns:svg="http://www.w3.org/2000/svg"
   xmlns="http://www.w3.org/2000/svg"
   viewBox="0 0 608.19067 561.00269"
   height="561.00269"
   width="608.19067"
   xml:space="preserve"
   id="svg2"
   version="1.1"><metadata
     id="metadata8"><rdf:RDF><cc:Work
         rdf:about=""><dc:format>image/svg+xml</dc:format><dc:type
           rdf:resource="http://purl.org/dc/dcmitype/StillImage" /></cc:Work></rdf:RDF></metadata><defs
     id="defs6"><clipPath
       id="clipPath18"
       clipPathUnits="userSpaceOnUse"><path
         id="path16"
         d="m 456.143,420.752 -164.196,-46.181 -4.846,-9.977 152.794,42.759 -7.982,-16.248 10.261,2.851 z M 15.342,391.96 l 10.262,-2.85 -9.355,18.243 146.185,-40.859 -4.846,9.977 L 0,420.752 Z m 211.896,-35.348 -39.197,57.013 21.638,-64.916 c 0.341,-1.022 -0.794,-1.903 -1.699,-1.321 v 0 l -15.664,10.079 5.705,-13.35 c 0.311,-0.834 -0.409,-1.687 -1.283,-1.519 v 0 l -32.643,8.314 37.531,-26.477 c 0.869,-0.613 0.974,-1.862 0.22,-2.611 v 0 l -21.36,-21.226 26.683,3.968 c 0.617,0.092 1.192,-0.327 1.293,-0.942 v 0 l 1.813,-11.008 10.547,8.837 -12.542,-19.955 -4.276,17.105 -39.909,-8.695 30.93,32.212 -44.186,29.219 v -6.187 c 0,-0.777 -0.76,-1.326 -1.498,-1.082 v 0 L 30.257,384.548 134.438,309.639 c 0.899,-0.647 0.444,-2.064 -0.662,-2.067 v 0 l -49.642,-0.133 81.992,-29.156 c 0.923,-0.353 0.991,-1.634 0.108,-2.082 v 0 l -14.419,-7.326 c -0.409,-0.208 -0.418,-0.788 -0.017,-1.008 v 0 l 75.214,-41.89 c 1.027,-0.573 2.277,-0.577 3.31,-0.01 v 0 l 76.358,41.9 c 0.401,0.22 0.392,0.8 -0.017,1.008 v 0 l -14.42,7.326 c -0.882,0.448 -0.814,1.729 0.109,2.082 v 0 l 76.277,29.156 -48.502,0.133 c -1.106,0.003 -1.56,1.42 -0.662,2.067 v 0 L 423.646,384.548 304.564,344.07 c -0.738,-0.244 -1.499,0.305 -1.499,1.082 v 0 6.187 l -43.045,-29.219 30.929,-32.212 -39.908,8.695 -4.276,-17.105 -12.543,19.955 10.547,-8.837 1.814,11.008 c 0.101,0.614 0.677,1.034 1.292,0.942 v 0 l 26.684,-3.968 -21.36,21.226 c -0.754,0.749 -0.649,1.998 0.219,2.611 v 0 l 37.531,25.336 -31.502,-6.032 c -0.873,-0.168 -1.593,0.686 -1.282,1.519 v 0 l 4.563,12.209 -15.664,-10.079 c -0.905,-0.582 -2.039,0.299 -1.699,1.32 v 0 l 21.639,64.917 z m -5.559,-40.288 c 0,0 3.469,2.28 5.939,6.651 v 0 c 2.471,-4.371 5.939,-6.651 5.939,-6.651 v 0 l -5.078,-74.306 z M 369.77,285.347 228.663,36.773 86.416,285.347 78.72,286.772 110.077,231.186 92.116,239.168 228.663,0 364.07,239.168 l -17.961,-7.982 31.356,55.586 z M 230.872,216.393 c -1.376,-0.73 -3.029,-0.707 -4.384,0.06 v 0 l -15.213,8.604 -61.717,-37.201 41.373,9.982 c 1.406,0.339 2.573,-1.111 1.94,-2.41 v 0 l -15.804,-32.515 34.176,22.066 c 0.991,0.64 2.316,0.109 2.592,-1.037 v 0 l 15.968,-66.497 16.379,66.34 c 0.285,1.149 1.623,1.669 2.609,1.013 v 0 l 33.75,-22.456 -16.882,34.024 c -0.649,1.307 0.532,2.774 1.948,2.419 v 0 l 41.302,-10.359 -61.717,36.631 z" /></clipPath><linearGradient
       id="linearGradient30"
       spreadMethod="pad"
       gradientTransform="matrix(0,420.75156,420.75156,0,228.0715,0)"
       gradientUnits="userSpaceOnUse"
       y2="0"
       x2="1"
       y1="0"
       x1="0"><stop
         id="stop24"
         offset="0"
         style="stop-opacity:1;stop-color:#09092b" /><stop
         id="stop26"
         offset="0.5145727"
         style="stop-opacity:1;stop-color:#121146" /><stop
         id="stop28"
         offset="1"
         style="stop-opacity:1;stop-color:#121146" /></linearGradient></defs><g
     transform="matrix(1.3333333,0,0,-1.3333333,0,561.00267)"
     id="g10"><g
       id="g12"><g
         clip-path="url(#clipPath18)"
         id="g14"><g
           id="g20"><g
             id="g22"><path
               id="path32"
               style="fill:url(#linearGradient30);stroke:none"
               d="m 456.143,420.752 -164.196,-46.181 -4.846,-9.977 152.794,42.759 -7.982,-16.248 10.261,2.851 z M 15.342,391.96 l 10.262,-2.85 -9.355,18.243 146.185,-40.859 -4.846,9.977 L 0,420.752 Z m 211.896,-35.348 -39.197,57.013 21.638,-64.916 c 0.341,-1.022 -0.794,-1.903 -1.699,-1.321 v 0 l -15.664,10.079 5.705,-13.35 c 0.311,-0.834 -0.409,-1.687 -1.283,-1.519 v 0 l -32.643,8.314 37.531,-26.477 c 0.869,-0.613 0.974,-1.862 0.22,-2.611 v 0 l -21.36,-21.226 26.683,3.968 c 0.617,0.092 1.192,-0.327 1.293,-0.942 v 0 l 1.813,-11.008 10.547,8.837 -12.542,-19.955 -4.276,17.105 -39.909,-8.695 30.93,32.212 -44.186,29.219 v -6.187 c 0,-0.777 -0.76,-1.326 -1.498,-1.082 v 0 L 30.257,384.548 134.438,309.639 c 0.899,-0.647 0.444,-2.064 -0.662,-2.067 v 0 l -49.642,-0.133 81.992,-29.156 c 0.923,-0.353 0.991,-1.634 0.108,-2.082 v 0 l -14.419,-7.326 c -0.409,-0.208 -0.418,-0.788 -0.017,-1.008 v 0 l 75.214,-41.89 c 1.027,-0.573 2.277,-0.577 3.31,-0.01 v 0 l 76.358,41.9 c 0.401,0.22 0.392,0.8 -0.017,1.008 v 0 l -14.42,7.326 c -0.882,0.448 -0.814,1.729 0.109,2.082 v 0 l 76.277,29.156 -48.502,0.133 c -1.106,0.003 -1.56,1.42 -0.662,2.067 v 0 L 423.646,384.548 304.564,344.07 c -0.738,-0.244 -1.499,0.305 -1.499,1.082 v 0 6.187 l -43.045,-29.219 30.929,-32.212 -39.908,8.695 -4.276,-17.105 -12.543,19.955 10.547,-8.837 1.814,11.008 c 0.101,0.614 0.677,1.034 1.292,0.942 v 0 l 26.684,-3.968 -21.36,21.226 c -0.754,0.749 -0.649,1.998 0.219,2.611 v 0 l 37.531,25.336 -31.502,-6.032 c -0.873,-0.168 -1.593,0.686 -1.282,1.519 v 0 l 4.563,12.209 -15.664,-10.079 c -0.905,-0.582 -2.039,0.299 -1.699,1.32 v 0 l 21.639,64.917 z m -5.559,-40.288 c 0,0 3.469,2.28 5.939,6.651 v 0 c 2.471,-4.371 5.939,-6.651 5.939,-6.651 v 0 l -5.078,-74.306 z M 369.77,285.347 228.663,36.773 86.416,285.347 78.72,286.772 110.077,231.186 92.116,239.168 228.663,0 364.07,239.168 l -17.961,-7.982 31.356,55.586 z M 230.872,216.393 c -1.376,-0.73 -3.029,-0.707 -4.384,0.06 v 0 l -15.213,8.604 -61.717,-37.201 41.373,9.982 c 1.406,0.339 2.573,-1.111 1.94,-2.41 v 0 l -15.804,-32.515 34.176,22.066 c 0.991,0.64 2.316,0.109 2.592,-1.037 v 0 l 15.968,-66.497 16.379,66.34 c 0.285,1.149 1.623,1.669 2.609,1.013 v 0 l 33.75,-22.456 -16.882,34.024 c -0.649,1.307 0.532,2.774 1.948,2.419 v 0 l 41.302,-10.359 -61.717,36.631 z" /></g></g></g></g></g></svg>